<svg width="64" height="64" viewBox="0 0 64 64" fill="none" xmlns="http://www.w3.org/2000/svg">
<path d="M57.96 44.8683C59.4571 45.6105 61.2871 45.0022 61.8846 43.4417C64.2208 37.3402 64.6417 30.6437 63.0492 24.2575C61.2118 16.889 56.8137 10.4141 50.6411 5.99019C44.4685 1.56631 36.9237 -0.51813 29.3555 0.109459C21.7873 0.737047 14.6889 4.03576 9.32932 9.41593C3.9697 14.7961 0.698184 21.907 0.0995698 29.4776C-0.499045 37.0482 1.61426 44.5849 6.06173 50.7405C10.5092 56.8961 17.0009 61.2694 24.3764 63.0786C30.7686 64.6466 37.4635 64.2001 43.556 61.8406C45.1142 61.2372 45.7155 59.4048 44.9676 57.9105V57.9105C44.2197 56.4162 42.4061 55.8295 40.8349 56.3985C36.0395 58.135 30.8147 58.4273 25.8181 57.2016C19.8373 55.7345 14.5731 52.1882 10.9667 47.1966C7.36025 42.205 5.64657 36.0935 6.13198 29.9546C6.6174 23.8156 9.27027 18.0494 13.6164 13.6866C17.9625 9.32383 23.7185 6.64891 29.8556 6.14C35.9926 5.63109 42.1107 7.32136 47.116 10.9087C52.1214 14.496 55.6878 19.7465 57.1778 25.7217C58.4226 30.7136 58.1503 35.9395 56.4321 40.7415C55.8692 42.3148 56.4628 44.1262 57.96 44.8683V44.8683Z" fill="white"/>
<path d="M32.0009 18V46V32M18 32H32.0009M46 32H32.0009" stroke="white" stroke-width="6" stroke-linecap="round" stroke-linejoin="round"/>
</svg>
