<svg width="26" height="26" viewBox="0 0 26 26" fill="none" xmlns="http://www.w3.org/2000/svg">
<path d="M7.86459 7.25369C8.15748 6.9608 8.15748 6.48592 7.86459 6.19303C7.57169 5.90014 7.09682 5.90014 6.80393 6.19303L7.86459 7.25369ZM3.66658 24.2498C3.25237 24.2498 2.91659 24.5856 2.91659 24.9998C2.91659 25.414 3.25237 25.7498 3.66659 25.7498L3.66658 24.2498ZM12.0001 25.7498C12.4143 25.7498 12.7501 25.414 12.7501 24.9998C12.7501 24.5856 12.4143 24.2498 12.0001 24.2498L12.0001 25.7498ZM14.9417 1.94434L19.4481 6.45071L20.5087 5.39005L16.0024 0.883684L14.9417 1.94434ZM7.0616 18.8372L2.55524 14.3308L1.49458 15.3915L6.00094 19.8978L7.0616 18.8372ZM13.0857 15.6415L21.0716 23.6274L22.1322 22.5667L14.1464 14.5808L13.0857 15.6415ZM24.4892 20.2097L16.5034 12.2238L15.4427 13.2845L23.4286 21.2703L24.4892 20.2097ZM13.0429 2.07538L13.1739 1.94434L12.1133 0.883684L11.9822 1.01472L13.0429 2.07538ZM3.66659 25.7498L12.0001 25.7498L12.0001 24.2498L3.66658 24.2498L3.66659 25.7498ZM13.0857 14.5808L10.2504 17.4161L11.3111 18.4768L14.1464 15.6415L13.0857 14.5808ZM10.2504 17.4161L8.82937 18.8372L9.89003 19.8978L11.3111 18.4768L10.2504 17.4161ZM2.55524 12.563L3.97629 11.142L2.91563 10.0813L1.49458 11.5024L2.55524 12.563ZM3.97629 11.142L7.86459 7.25369L6.80393 6.19303L2.91563 10.0813L3.97629 11.142ZM11.3111 17.4161L3.97629 10.0813L2.91563 11.142L10.2504 18.4768L11.3111 17.4161ZM19.4481 8.21847L17.9028 9.76372L18.9635 10.8244L20.5087 9.27913L19.4481 8.21847ZM17.9028 9.76372L13.0857 14.5808L14.1464 15.6415L18.9635 10.8244L17.9028 9.76372ZM11.9822 4.90381L17.9028 10.8244L18.9635 9.76372L13.0429 3.84315L11.9822 4.90381ZM11.9822 1.01472C10.9083 2.08866 10.9083 3.82986 11.9822 4.90381L13.0429 3.84315C12.5547 3.35499 12.5547 2.56353 13.0429 2.07538L11.9822 1.01472ZM24.4892 23.6274C25.433 22.6836 25.433 21.1534 24.4892 20.2097L23.4286 21.2703C23.7866 21.6283 23.7866 22.2087 23.4286 22.5667L24.4892 23.6274ZM6.00094 19.8978C7.07488 20.9718 8.81609 20.9718 9.89003 19.8978L8.82937 18.8372C8.34121 19.3253 7.54976 19.3253 7.0616 18.8372L6.00094 19.8978ZM19.4481 6.45071C19.9362 6.93886 19.9362 7.73032 19.4481 8.21847L20.5087 9.27913C21.5827 8.20519 21.5827 6.46399 20.5087 5.39005L19.4481 6.45071ZM16.0024 0.883684C14.9284 -0.190258 13.1872 -0.190258 12.1133 0.883684L13.1739 1.94434C13.6621 1.45619 14.4535 1.45619 14.9417 1.94434L16.0024 0.883684ZM21.0716 23.6274C22.0153 24.5711 23.5455 24.5711 24.4892 23.6274L23.4286 22.5667C23.0706 22.9247 22.4902 22.9247 22.1322 22.5667L21.0716 23.6274ZM2.55524 14.3308C2.06709 13.8426 2.06709 13.0512 2.55524 12.563L1.49458 11.5024C0.420638 12.5763 0.420639 14.3175 1.49458 15.3915L2.55524 14.3308Z" fill="#7F35FF"/>
</svg>
