<svg width="65" height="68" viewBox="0 0 65 68" fill="none" xmlns="http://www.w3.org/2000/svg">
<path d="M48.195 13.7937C49.8354 9.899 48.8243 5.08443 44.6243 3.06476C42.5214 2.05352 40.1658 2.33726 38.2567 3.29985C36.8716 3.99826 35.6203 5.09584 34.7074 6.50223C34.5182 5.86076 34.2602 5.23776 33.9384 4.65718C32.9741 2.91758 31.2759 1.30299 28.8264 0.970766C27.321 0.766572 25.5463 0.879845 23.9126 1.70713C22.2159 2.5663 20.8743 4.09631 20.1797 6.32014C19.9488 7.05924 19.6618 8.4857 19.3574 10.1032C19.1262 11.3324 18.867 12.7734 18.5939 14.2925C18.4945 14.8451 18.3933 15.4079 18.2909 15.9747C17.9346 17.9463 17.5662 19.9509 17.2063 21.7729C16.8979 21.0878 16.6283 20.4506 16.4242 19.9544C15.5304 17.7814 14.4802 15.6943 12.5208 14.2769C10.6868 12.9502 8.43416 12.6806 5.82489 13.6141C3.2099 14.5497 1.63801 16.2355 0.942073 18.173C0.283233 20.0073 0.483405 21.8558 0.964497 23.1528C3.83825 30.9006 5.93899 36.7501 5.93966 44.5303C5.94047 54.0348 11.3566 61.4088 17.0992 64.9569L17.1742 65.0032L17.2525 65.0435C20.7742 66.8546 24.6892 67.9965 28.8804 67.7867C33.0928 67.5758 37.4067 66.0078 41.7127 62.6851C44.4297 60.5885 47.108 57.2768 49.1963 54.4274C50.2586 52.978 51.2028 51.5994 51.9564 50.4872L52.3651 49.8834C52.8922 49.1038 53.2621 48.5568 53.4926 48.2489L62.6265 37.7881L62.6724 37.7355L62.715 37.6802C65.2292 34.4113 64.6555 29.7253 61.4385 27.1656L61.4287 27.1578C60.0505 26.0737 58.5092 25.5685 56.9781 25.5344L57.1312 25.2946C58.4012 23.308 58.6555 21.1858 58.0945 19.2741C57.5498 17.4181 56.286 15.9153 54.7751 14.9455C53.2641 13.9758 51.3709 13.4526 49.4556 13.7337C48.9842 13.8029 48.5214 13.9195 48.0728 14.0841L48.195 13.7937ZM42.9466 26.5628L42.9483 26.5581L42.9556 26.5351L42.9504 26.5505C42.9474 26.5595 42.9463 26.5634 42.9466 26.5628ZM53.998 31.2942C55.5009 29.7885 57.3727 29.6856 58.6469 30.684C59.9232 31.7038 60.1692 33.5699 59.1912 34.8937L50.0582 45.3536L50.0108 45.4078L49.9671 45.465C49.6511 45.8774 49.1657 46.5958 48.6057 47.4246L48.2384 47.9677C47.4937 49.0666 46.5863 50.3908 45.5737 51.7724C43.5122 54.5852 41.1475 57.4482 38.9689 59.1293C35.2998 61.9605 31.8479 63.1412 28.6559 63.301C25.471 63.4604 22.3697 62.6115 19.3861 61.0901C14.8228 58.2357 10.4317 52.2448 10.431 44.53C10.4303 35.8512 8.03876 29.3104 5.1755 21.5909C5.00047 21.119 4.92421 20.3729 5.16902 19.6913C5.37675 19.1129 5.88861 18.3615 7.33786 17.843C8.79283 17.3224 9.44727 17.5968 9.88833 17.9159C10.5314 18.381 11.1325 19.2677 11.8831 20.6982L11.9534 20.8772C12.0281 21.0663 12.136 21.3357 12.2705 21.6629C12.5389 22.3154 12.9172 23.2058 13.354 24.1493C13.788 25.0866 14.2946 26.1088 14.8212 27.0125C15.3091 27.8497 15.9479 28.825 16.6907 29.462C17.2713 29.9601 18.0656 30.1283 18.7983 29.9083C19.531 29.6884 20.1013 29.1106 20.3117 28.3751C21.066 25.7382 21.9466 21.0018 22.7106 16.7733C22.815 16.1956 22.9175 15.6259 23.0175 15.0696C23.2894 13.5573 23.5437 12.1436 23.7713 10.9337C24.0937 9.22016 24.3318 8.09111 24.4667 7.6593C24.8229 6.51917 25.3942 5.99125 25.9416 5.71402C26.5521 5.40492 27.3527 5.30334 28.2228 5.42135C28.892 5.51212 29.5261 5.96132 30.0103 6.83473C30.5079 7.7325 30.6792 8.80911 30.555 9.59113C30.2854 11.2877 30.0042 13.0075 29.7439 14.5997L29.7434 14.6023L29.7422 14.6103C29.554 15.7613 29.3767 16.8457 29.2227 17.8057C29.1277 18.3979 29.0417 18.9421 28.9688 19.4182L28.0594 24.8486C27.8546 26.0718 28.6802 27.2295 29.9034 27.4343C31.1266 27.6392 32.2843 26.8136 32.4891 25.5904L32.9861 22.6224C33.0075 22.5803 33.0239 22.5449 33.0356 22.519L33.0585 22.4682L33.0789 22.4164L37.9961 9.89945L38.0066 9.8728C38.4557 8.68516 39.3263 7.79056 40.2789 7.31023C41.2479 6.82161 42.1109 6.83976 42.6779 7.11242C44.218 7.85301 44.9999 9.8088 44.0558 12.0504C42.6877 15.2987 41.278 18.6898 40.2499 21.201C39.7634 22.3894 39.359 23.3887 39.0844 24.0846L37.6677 27.3178C37.17 28.4538 37.6874 29.7782 38.8234 30.276C39.9594 30.7737 41.2838 30.2563 41.7815 29.1203L42.5789 27.3004C42.6145 27.2547 42.6417 27.2163 42.6596 27.1902L42.6814 27.158L48.0957 19.6618L48.1324 19.611L48.1662 19.5582C48.7652 18.6231 49.4668 18.2715 50.1077 18.1774C50.8076 18.0747 51.6211 18.2581 52.3492 18.7254C53.0773 19.1926 53.5849 19.8572 53.7849 20.5388C53.9681 21.1633 53.9411 21.9474 53.3457 22.8776L53.3429 22.8819C51.6099 25.603 49.906 28.0694 48.667 29.8172C47.4424 31.5445 46.2024 33.2547 44.8146 34.8558L44.7204 34.9643L44.6965 34.9917L44.6908 34.9983L44.6893 35C43.8732 35.9339 43.9687 37.3526 44.9025 38.1687C45.8364 38.9848 47.2551 38.8893 48.0712 37.9554L48.0741 37.9522L48.0813 37.9439L48.108 37.9132L48.2085 37.7975C48.2953 37.6974 48.4201 37.553 48.574 37.3736C48.8816 37.0151 49.3068 36.5156 49.7773 35.9512C50.1181 35.5425 50.4901 35.0909 50.8622 34.6286L53.998 31.2942ZM40.7258 44.5515C38.5661 43.0901 35.0524 40.7707 31.2972 38.8044C30.0162 38.1336 28.7471 37.5259 27.5244 37.0115C27.6152 37.1372 27.7063 37.2649 27.7975 37.3943C30.4582 41.1693 33.353 46.6486 34.0127 53.2694C34.1357 54.5035 33.2349 55.6037 32.0008 55.7266C30.7666 55.8496 29.6665 54.9488 29.5435 53.7147C28.9867 48.1263 26.5216 43.3801 24.1264 39.9818C22.9352 38.2917 21.7805 36.9626 20.9295 36.0615C20.5047 35.6117 20.1575 35.2707 19.9219 35.0468C19.8042 34.9349 19.7146 34.8525 19.6572 34.8005L19.5961 34.7457L19.5869 34.7375L19.5844 34.7353C18.8714 34.1152 18.6229 33.115 18.9628 32.2331C19.3032 31.3503 20.1605 30.7755 21.1065 30.7958C24.9376 30.8782 29.4858 32.7861 33.3807 34.8255C37.368 36.9134 41.0519 39.3492 43.2429 40.8318C44.2701 41.5269 44.5393 42.923 43.8442 43.9502C43.1491 44.9774 41.753 45.2466 40.7258 44.5515Z" fill="#7F35FF"/>
</svg>
