<svg xmlns="http://www.w3.org/2000/svg" style="display: none;">
    <symbol id="icon-profile" viewBox="0 0 24 24">
        <path d="M23.7,20.308a11.919,11.919,0,0,0-5.342-7.466,8,8,0,1,0-12.709,0A11.894,11.894,0,0,0,.305,20.307a3.01,3.01,0,0,0,.582,2.561A2.977,2.977,0,0,0,3.23,24H20.77a2.977,2.977,0,0,0,2.343-1.132A3.008,3.008,0,0,0,23.7,20.308ZM12,2A6,6,0,1,1,6,8,6.006,6.006,0,0,1,12,2Zm9.549,19.623A.982.982,0,0,1,20.77,22H3.23a.982.982,0,0,1-.779-.377,1.026,1.026,0,0,1-.2-.87A9.9,9.9,0,0,1,7.1,14.306a7.949,7.949,0,0,0,9.813,0,9.925,9.925,0,0,1,4.838,6.45A1.024,1.024,0,0,1,21.549,21.623Z"/>
    </symbol>
</svg>