<svg width="64" height="64" viewBox="0 0 64 64" fill="none" xmlns="http://www.w3.org/2000/svg">
<path d="M53.6562 12.751C54.9052 11.6409 55.0267 9.71629 53.8037 8.57771C49.2191 4.30984 43.4637 1.46519 37.2409 0.432093C30.0195 -0.766814 22.6053 0.546447 16.235 4.15283C9.86472 7.75921 4.92348 13.4407 2.23547 20.2496C-0.452548 27.0585 -0.72482 34.5832 1.46406 41.5685C3.65295 48.5539 8.17065 54.5776 14.2636 58.635C20.3566 62.6923 27.6565 64.538 34.9457 63.8641C42.2349 63.1903 49.0727 60.0376 54.3186 54.932C58.839 50.5326 61.9419 44.9121 63.2711 38.7912C63.6257 37.1582 62.4276 35.6472 60.7685 35.4483V35.4483C59.1093 35.2494 57.6207 36.44 57.2301 38.0647C56.0892 42.8115 53.626 47.1621 50.0981 50.5956C45.8442 54.7357 40.2995 57.2922 34.3887 57.8386C28.4779 58.385 22.5584 56.8884 17.6176 53.5983C12.6768 50.3082 9.01341 45.4235 7.23845 39.7591C5.46349 34.0947 5.68427 27.9929 7.86398 22.4716C10.0437 16.9503 14.0505 12.3432 19.2162 9.41877C24.3818 6.49436 30.394 5.42943 36.2499 6.40163C41.1063 7.20789 45.6117 9.37482 49.2575 12.6217C50.5054 13.733 52.4073 13.8611 53.6562 12.751V12.751Z" fill="white"/>
<path d="M46 14.5L56 17V7" stroke="white" stroke-width="6" stroke-linecap="round" stroke-linejoin="round"/>
</svg>
