<svg width="64" height="69" viewBox="0 0 64 69" fill="none" xmlns="http://www.w3.org/2000/svg">
<path d="M5.75534 23.6241C5.85869 23.4451 5.96204 23.2661 6.07263 23.0745C6.22249 22.815 6.37338 22.5536 6.54687 22.2862C6.62438 22.1519 6.71649 22.0213 6.80323 21.8876C7.45421 20.8732 8.19046 19.9161 9.00398 19.0267C9.14671 18.8704 9.28587 18.712 9.43576 18.5599C9.65261 18.3414 9.8835 18.1358 10.1154 17.9284C10.3474 17.721 10.5859 17.5269 10.8265 17.3293C11.0393 17.1633 11.2546 17.0012 11.4796 16.8471C11.5869 16.773 11.6818 16.687 11.7916 16.6167L12.5502 15.3028C13.288 14.058 15.2456 10.6342 16.829 7.89176L18.493 5.00969C19.7193 3.00469 21.6778 1.55562 23.9538 0.969214C26.2297 0.382809 28.6446 0.7051 30.6871 1.86787C32.0117 2.5522 33.1529 3.54419 34.015 4.76063L34.0293 4.76889C34.1613 4.96791 34.281 5.17488 34.3875 5.38864C34.4411 5.49835 34.4921 5.62088 34.5319 5.72976C34.6206 5.93975 34.6974 6.15461 34.7618 6.37329C34.8318 6.6157 34.8872 6.86209 34.9277 7.11114C34.9365 7.1663 34.9542 7.20997 34.9612 7.2641C35.0731 7.23562 35.1992 7.23208 35.3109 7.20822C35.6792 7.12614 36.0521 7.06565 36.4275 7.02706C36.6239 7.00922 36.8252 7.00371 37.0247 6.99716C37.3942 6.98423 37.7641 6.99376 38.1324 7.02568C38.3472 7.04227 38.5599 7.06245 38.7775 7.09495C39.187 7.16242 39.5922 7.25447 39.9907 7.37059C40.1945 7.43098 40.3813 7.46719 40.5789 7.53832C41.2168 7.75414 41.8328 8.02987 42.4187 8.36182V8.36182C42.8167 8.62305 43.1946 8.91381 43.549 9.23165C43.6847 9.34814 43.8113 9.47613 43.9407 9.60336C44.1296 9.7888 44.3161 9.99909 44.5063 10.2235C44.7327 10.4909 44.9429 10.7716 45.1356 11.0642C45.2742 11.2707 45.4058 11.4851 45.5327 11.7159C45.6596 11.9467 45.7636 12.1428 45.8541 12.3621C46.0058 12.7113 46.1334 13.0705 46.236 13.4371C46.2744 13.569 46.3292 13.689 46.3609 13.8243C46.4723 14.295 46.5445 14.7742 46.5768 15.2569C46.6278 15.2553 46.6865 15.2653 46.7393 15.2648C46.9814 15.2589 47.2477 15.2814 47.5132 15.3011C47.6818 15.3149 47.8472 15.322 48.0175 15.3535C48.2968 15.3907 48.5917 15.4464 48.8772 15.5181C49.0527 15.5574 49.2233 15.5843 49.4028 15.633C49.7245 15.7209 50.0587 15.8446 50.4012 15.9708C50.5615 16.0323 50.7164 16.074 50.8817 16.1432C51.4092 16.3648 51.9222 16.6195 52.4176 16.9058L52.4266 16.911C52.7892 17.1489 53.1333 17.4138 53.4561 17.7034C53.5924 17.8228 53.719 17.9508 53.8485 18.078C53.9779 18.2052 54.125 18.3761 54.2671 18.5393C54.5307 18.8441 54.7712 19.1681 54.9868 19.5086C55.0826 19.6569 55.1773 19.8071 55.2658 19.968C55.3909 20.1977 55.503 20.4295 55.606 20.6728C55.709 20.916 55.7747 21.1329 55.8528 21.3738C55.931 21.6146 56.0025 21.7967 56.0517 22.0256C56.1528 22.4785 56.215 22.9392 56.2376 23.4027C56.3257 23.4154 56.4188 23.4692 56.5149 23.4888C56.888 23.5786 57.2554 23.6904 57.6153 23.8235C57.7858 23.8837 57.954 23.9355 58.1258 24.006C58.6889 24.2364 59.2362 24.5037 59.7641 24.8063L59.7784 24.8145C60.7745 25.4396 61.637 26.2557 62.3162 27.2157C62.9955 28.1757 63.4779 29.2607 63.7358 30.408C63.9938 31.5554 64.022 32.7425 63.819 33.9008C63.616 35.0591 63.1857 36.1658 62.5529 37.157L59.2746 42.8353C59.0523 43.2147 58.8006 43.5761 58.5217 43.9162C58.5031 43.9484 58.4834 43.9824 58.4648 44.0146L58.315 44.2742C53.3887 52.9225 46.6414 64.7703 35.3843 67.823C29.278 69.4698 22.6079 68.2443 15.5549 64.1722C-1.59073 54.2732 -1.17854 37.5935 4.39238 26.2742C4.5368 25.9018 4.70861 25.5407 4.90638 25.1937C5.06203 24.8993 5.23554 24.5699 5.42323 24.22C5.52741 24.0271 5.63931 23.8292 5.75534 23.6241ZM22.0788 7.07521L20.418 9.95191C19.6201 11.3339 18.723 12.8877 17.9375 14.2482L17.6564 14.7351C20.8069 14.7339 23.8976 15.5961 26.5924 17.2282C27.3934 15.9029 28.323 14.3465 29.2191 12.7944C29.6489 12.0641 30.0268 11.3045 30.3502 10.5212L30.4862 10.1367C30.6982 9.57855 30.8297 8.99306 30.8767 8.39786C30.8797 8.31839 30.8738 8.24581 30.8719 8.17068C30.8699 8.09555 30.8609 7.98295 30.8513 7.89625C30.8085 7.54434 30.6844 7.20719 30.489 6.91139C30.471 6.88231 30.4513 6.85423 30.4302 6.82729C30.3683 6.73896 30.3003 6.65505 30.2267 6.57615C30.1182 6.46177 30.0021 6.35487 29.8792 6.25618L29.8005 6.19404C29.4257 5.91934 29.0341 5.66849 28.6278 5.44298C27.5334 4.8307 26.2468 4.65867 25.03 4.96193C23.8132 5.2652 22.7578 6.02094 22.0788 7.07521V7.07521ZM46.9773 34.5515L50.7651 27.9908C51.3256 27.0666 51.735 26.0589 51.9778 25.0057L51.9933 24.9788C52.0633 24.6294 52.0998 24.274 52.1023 23.9176C52.1021 23.7832 52.0944 23.6488 52.0793 23.5152C52.0694 23.3535 52.05 23.1925 52.0212 23.033C51.9913 22.8821 51.9558 22.7327 51.9159 22.5951C51.8761 22.4575 51.8478 22.403 51.8108 22.3101C51.6364 21.8718 51.3838 21.4688 51.0654 21.1207C51.0037 21.054 50.9412 20.9845 50.8753 20.925C50.8094 20.8655 50.742 20.8003 50.6758 20.7454C50.5495 20.6377 50.4166 20.5379 50.278 20.4465C49.0044 19.5944 47.4564 19.2538 45.9429 19.4926C45.5923 20.5837 45.1279 21.6347 44.5572 22.6285L40.386 29.8534C39.9217 30.6439 39.4032 31.4012 38.834 32.1198C38.3225 32.9269 38.1214 33.8922 38.2681 34.8363C38.6854 35.9063 39.5051 36.7703 40.5518 37.2432C41.7632 37.7092 43.1079 37.6894 44.3051 37.1879C45.5023 36.6864 46.4597 35.7419 46.9773 34.5515V34.5515ZM36.6899 27.9414C36.723 27.8842 36.7509 27.8358 36.7861 27.775L40.9573 20.5501C41.5655 19.539 42.0121 18.4391 42.281 17.2901C42.3174 17.1154 42.3363 16.9545 42.3573 16.79C42.3951 16.5464 42.4182 16.3007 42.4265 16.0542C42.4293 15.8673 42.4284 15.683 42.4138 15.5099C42.3991 15.3367 42.3681 15.1756 42.3477 15.0206C42.3195 14.8377 42.2816 14.6565 42.234 14.4776C42.2133 14.406 42.1818 14.3448 42.1572 14.2758C42.0269 13.9097 41.8498 13.5619 41.6303 13.2412C41.5911 13.1851 41.5552 13.1191 41.5139 13.0666C41.4161 12.9385 41.3145 12.825 41.2137 12.7143C41.1344 12.6326 41.056 12.5492 40.9771 12.475C40.8983 12.4008 40.8229 12.3287 40.7374 12.2578C40.5749 12.1258 40.4093 11.9992 40.257 11.8993C39.8805 11.6809 39.483 11.501 39.0705 11.3623C38.5127 11.1794 37.9285 11.0905 37.3416 11.0992C37.2118 11.1007 37.0722 11.0821 36.9475 11.0913C35.9474 11.1771 34.9874 11.5241 34.1636 12.0975C33.7772 13.0526 33.3223 13.9786 32.8026 14.8681C31.8828 16.4613 30.9304 18.0572 30.1119 19.4129C34.1295 22.2147 36.292 25.0217 36.6899 27.9414V27.9414ZM58.9738 35.0882C59.3356 34.5609 59.5885 33.9665 59.7176 33.3401C59.8466 32.7137 59.8492 32.0678 59.7252 31.4404C59.6012 30.813 59.3531 30.2166 58.9955 29.6864C58.6378 29.1561 58.1779 28.7027 57.6426 28.3527C57.1207 28.0475 56.5669 27.8006 55.9912 27.6164C55.9607 27.5988 55.9267 27.5792 55.887 27.5777C55.7587 27.5395 55.6487 27.5523 55.5234 27.5253C55.2065 28.4027 54.8123 29.2502 54.3453 30.0578L50.5575 36.6186C49.7205 38.0831 48.5454 39.3262 47.1301 40.244C47.7237 41.1653 48.5476 41.9158 49.5202 42.4211C50.5805 42.911 51.779 43.0137 52.9073 42.7114C54.0355 42.4091 55.0221 41.7209 55.6955 40.7664L58.9738 35.0882ZM8.22459 27.8303L8.14093 28.0207C-1.80462 48.0705 14.2941 58.6707 17.6219 60.592C23.7727 64.1432 29.2268 65.2012 34.297 63.8275C42.088 61.7142 47.6787 54.0772 51.9494 46.9861C50.3903 47.0564 48.8401 46.7168 47.4532 46.0013C45.6238 45.05 44.1379 43.5503 43.2034 41.7123C41.5787 41.9289 39.9273 41.6188 38.4919 40.8275C37.4914 40.3314 36.6017 39.6377 35.8766 38.7884C35.1515 37.939 34.606 36.9516 34.273 35.8856C34.2125 35.6241 34.1678 35.3591 34.1391 35.0922C32.8859 36.3114 31.3213 37.162 29.6168 37.5509C33.4152 41.782 36.036 46.9363 37.2172 52.4982C37.275 52.7635 37.2799 53.0376 37.2318 53.3048C37.1836 53.572 37.0833 53.8271 36.9366 54.0556C36.7898 54.284 36.5995 54.4813 36.3765 54.6362C36.1535 54.7911 35.9022 54.9006 35.6369 54.9584C35.3716 55.0162 35.0975 55.0211 34.8303 54.973C34.5631 54.9248 34.308 54.8245 34.0795 54.6777C33.8511 54.531 33.6538 54.3407 33.4989 54.1177C33.344 53.8947 33.2345 53.6434 33.1767 53.3781C32.3524 49.5263 30.7436 45.8855 28.4507 42.6826C26.1578 39.4797 23.2298 36.7834 19.8493 34.7615C19.5557 34.592 19.2944 34.4411 19.067 34.3098L15.766 40.0274C15.4919 40.5022 15.0404 40.8486 14.5109 40.9905C13.9813 41.1324 13.4171 41.0581 12.9424 40.784C12.4676 40.5099 12.1212 40.0584 11.9793 39.5289C11.8374 38.9994 11.9117 38.4351 12.1858 37.9604L15.6687 31.9277C16.1402 31.1182 16.8757 30.4953 17.7518 30.1636C18.1564 29.9106 18.6377 29.8095 19.1099 29.8784C19.8825 29.8455 20.6486 30.0321 21.3196 30.4166L26.1314 33.1947C27.1274 33.6382 28.2496 33.709 29.2935 33.3943C30.3374 33.0796 31.2335 32.4003 31.8185 31.4802C32.8003 29.7796 34.6276 26.6147 24.9789 21.044C23.6954 20.142 22.2427 19.5088 20.7082 19.1828C19.1737 18.8567 17.5891 18.8445 16.0497 19.1467C15.2293 19.3985 14.4563 19.7846 13.7623 20.2893C13.6231 20.3856 13.4764 20.4703 13.3431 20.5771C13.1352 20.7387 12.9462 20.9256 12.7503 21.1037C12.3832 21.4398 12.0364 21.7975 11.7118 22.1748C11.645 22.2533 11.5708 22.3321 11.51 22.4044C11.2953 22.6647 11.0949 22.9333 10.898 23.2039C10.8484 23.2899 10.775 23.3716 10.7185 23.4488C10.5312 23.7153 10.3538 23.9853 10.1832 24.2519L10.0102 24.5268C9.86134 24.7846 9.70383 25.0326 9.56121 25.2796C9.48473 25.4121 9.41031 25.541 9.3359 25.6698C9.22531 25.8614 9.11473 26.0529 9.02109 26.2399C8.85262 26.5317 8.70695 26.8295 8.56783 27.0953L8.52442 27.1704C8.40651 27.3818 8.30623 27.6025 8.22459 27.8303V27.8303Z" fill="#7F35FF"/>
</svg>
