<svg width="55" height="69" viewBox="0 0 55 69" fill="none" xmlns="http://www.w3.org/2000/svg">
<path d="M14.034 65.2245C5.2474 60.1516 2.19289 53.6479 1.17815 49.0817C0.539999 46.2081 0.49668 43.2344 1.05086 40.3436C1.22866 39.416 1.46677 38.5033 1.76285 37.6111C2.03964 36.4142 2.55188 35.219 3.28759 34.0963C3.62755 33.4714 3.99887 32.8625 4.40054 32.272C9.11906 25.5185 11.0719 22.7201 11.5729 19.9884L13.9924 7.83905C14.4343 5.28582 15.8328 2.997 17.9029 1.43854C18.7289 0.876723 19.6612 0.490051 20.6423 0.302365C21.6234 0.114679 22.6326 0.129958 23.6076 0.347259C24.659 0.514537 25.6662 0.890628 26.5698 1.45336C27.4735 2.01609 28.2554 2.75406 28.8693 3.62377C29.4832 4.49347 29.9168 5.4773 30.1445 6.51724C30.3721 7.55718 30.3893 8.63217 30.1948 9.67883L29.2762 14.2568C30.9077 11.7992 32.5693 9.34345 33.7789 7.66142C34.3771 6.80227 35.1398 6.0703 36.0228 5.5079C36.9058 4.94549 37.8916 4.56382 38.9231 4.38498C39.9545 4.20613 41.0113 4.23367 42.0321 4.466C43.0529 4.69832 44.0174 5.13081 44.8699 5.73844C45.7532 6.31946 46.5078 7.07578 47.0867 7.96047C47.6657 8.84516 48.0567 9.83936 48.2355 10.8814C48.6033 12.753 48.2511 14.6945 47.2492 16.3175L42.3978 23.6918C42.8716 23.861 43.329 24.073 43.7643 24.3252C44.5045 24.702 45.1769 25.1943 45.7574 25.7814C46.3146 26.3108 46.808 26.9223 47.1976 27.6269C47.6042 28.3622 47.8741 29.1569 47.9989 30.0007C48.8523 30.1596 49.6721 30.4645 50.4223 30.9023C51.4084 31.4313 52.2733 32.1603 52.9617 33.0425C53.1126 33.236 53.2543 33.4358 53.3864 33.6414C53.8075 34.2758 54.1389 34.9755 54.3579 35.735C54.5046 36.244 54.5962 36.7637 54.6331 37.2905C54.6928 37.9743 54.665 38.6647 54.5488 39.3447C54.361 40.4448 53.9462 41.4938 53.3311 42.4249C53.3295 42.4276 53.3279 42.4304 53.3263 42.4332L50.8023 46.8049C50.6408 47.0846 50.4674 47.3497 50.2832 47.5999C48.119 51.6777 45.5732 55.5412 42.6798 59.1386C35.0528 68.6885 24.0751 71.0217 14.034 65.2245ZM49.6573 36.1461C49.3328 35.6479 48.8434 35.1828 48.1736 34.7961C47.7885 34.5738 47.412 34.4492 47.0474 34.4028C46.9459 34.3905 46.8436 34.3837 46.741 34.3825C46.3621 35.0405 45.7564 36.1668 45.0707 37.4416L44.8746 37.8063C44.1169 39.2147 43.2914 40.7434 42.6485 41.857C42.1101 42.7896 41.419 43.6217 40.6786 44.3232C40.9483 44.7155 41.3707 45.1101 42.0068 45.4773C43.0692 46.0908 44.0865 46.2485 44.8853 46.0975C45.4715 45.9866 46.0415 45.6939 46.5258 45.1165C46.5347 45.1051 46.5437 45.0937 46.5529 45.0824C46.6846 44.9182 46.8034 44.7441 46.9081 44.5615L49.4323 40.1895C49.4366 40.184 49.4409 40.1784 49.4451 40.1728C50.0625 39.0977 50.217 38.2034 50.142 37.4923C50.1274 37.3918 50.1086 37.2918 50.0854 37.1925C49.9989 36.8223 49.8541 36.4692 49.6573 36.1461ZM43.3186 50.5834C42.0821 50.4339 40.8702 50.0073 39.7611 49.367C38.3944 48.5779 37.2826 47.5168 36.5824 46.2258C34.9854 46.3515 33.3634 45.9974 31.9022 45.1537C30.3547 44.2603 29.2238 42.9704 28.5545 41.4748C27.905 42.4005 26.8687 43.5433 25.4519 44.3224C25.1335 44.4975 24.7992 44.6519 24.4505 44.7808C24.8345 45.4915 25.1863 46.231 25.5079 47.0227C26.4097 49.2431 27.0348 51.7787 27.5318 55.1172C27.7145 56.344 26.868 57.4865 25.6413 57.6691C24.4146 57.8517 23.2721 57.0053 23.0894 55.7786C22.623 52.6455 22.0678 50.4884 21.3467 48.7128C20.7399 47.2188 19.9881 45.9264 18.9791 44.4973C18.7349 44.3844 18.4887 44.2568 18.241 44.1138C17.0508 43.4266 16.0479 43.5383 14.8695 44.0276C14.2642 44.279 13.6859 44.6019 13.017 44.9754L12.8798 45.052C12.2374 45.4104 11.3878 45.8845 10.5276 46.1413C8.65777 46.6995 6.8466 46.667 5.2836 45.9688L5.22779 45.9436C5.29277 46.6703 5.40411 47.3937 5.56174 48.1093C6.31678 50.944 7.66176 53.5873 9.50871 55.8664C11.3557 58.1455 13.663 60.0089 16.2797 61.3349C24.3779 66.0104 32.933 64.1455 39.1687 56.3361C40.6478 54.4881 42.0328 52.5681 43.3186 50.5834ZM29.1455 33.3668C29.1513 33.3566 29.1572 33.3463 29.1632 33.336L32.0266 28.3764C33.2725 26.2185 34.9505 24.6693 36.893 23.8798L43.5509 13.7674C43.863 13.1099 43.9523 12.3686 43.8054 11.6558C43.7281 11.2028 43.5569 10.771 43.3028 10.3881C43.0488 10.0052 42.7174 9.67965 42.3301 9.43232C41.9573 9.15547 41.5321 8.95719 41.0804 8.84949C40.6287 8.74178 40.1598 8.72689 39.7021 8.80571C39.2445 8.88453 38.8076 9.05543 38.4179 9.30806C38.0282 9.56068 37.6939 9.88977 37.4352 10.2754C34.915 13.783 30.3192 20.8331 28.288 23.9492L28.2214 24.0513L28.0479 24.3115C27.7471 24.8149 27.2934 25.2092 26.7529 25.4368C26.2125 25.6644 25.6135 25.7135 25.0431 25.5769C24.4588 25.4216 23.9429 25.0759 23.577 24.5946C23.211 24.1133 23.0159 23.5238 23.0224 22.9192C23.0163 22.746 23.0294 22.5727 23.0615 22.4024L25.778 8.85835C25.8688 8.38411 25.8597 7.89615 25.7512 7.42564C25.6427 6.95513 25.4373 6.51242 25.1481 6.12579C24.8588 5.73916 24.4921 5.41712 24.0713 5.18024C23.6506 4.94336 23.1851 4.79685 22.7045 4.75007C22.3195 4.64949 21.9175 4.63204 21.5253 4.69887C21.133 4.76571 20.7595 4.9153 20.4296 5.13771C19.3578 6.03335 18.6381 7.27985 18.3983 8.65586L15.9732 20.833C15.5928 22.9136 14.7418 24.7931 13.127 27.3905C13.6528 27.2859 14.1851 27.2104 14.7229 27.1639C18.6379 26.8256 22.6244 28.0411 26.2871 30.3669C27.629 31.219 28.5539 32.2577 29.1455 33.3668ZM36.9268 41.6232C37.5979 41.1192 38.2974 40.4106 38.7589 39.6113C39.3616 38.5674 40.1536 37.1017 40.9193 35.6784L41.128 35.2904C41.8043 34.0328 42.4494 32.8332 42.8638 32.1154C43.1882 31.5536 43.3536 31.0752 43.4341 30.7367L43.444 30.6939C43.3984 30.3402 43.2914 29.9943 43.1251 29.6723C43.0374 29.5025 42.9347 29.3424 42.8188 29.1934C42.5265 28.8816 42.1382 28.5767 41.6392 28.2886C40.7143 27.7546 39.7448 27.6542 38.8329 27.9498C37.9081 28.2495 36.8364 29.0282 35.9162 30.6221L33.0528 35.5817C31.6373 38.0334 32.4482 40.2829 34.1478 41.2641C35.0282 41.7724 36.0045 41.8841 36.9268 41.6232ZM7.12401 36.4363C6.72367 37.1999 6.38154 37.9922 6.10038 38.8064C5.94483 39.6315 6.01867 40.3513 6.21996 40.8663C6.42171 41.3826 6.73776 41.6993 7.11542 41.868C7.50029 42.04 8.17514 42.1564 9.24268 41.8377C9.5505 41.7458 9.96955 41.5326 10.7001 41.125L10.8645 41.0331C11.4922 40.6819 12.2893 40.2359 13.1471 39.8797C15.1255 39.0582 17.69 38.6095 20.4867 40.2242C21.7439 40.9501 22.6058 40.7619 23.2877 40.3869C24.1204 39.929 24.7838 39.097 25.0987 38.5516C25.3287 38.1531 25.5888 37.3415 25.4937 36.4963C25.4115 35.7654 25.0615 34.909 23.8795 34.1584C20.8404 32.2286 17.8238 31.404 15.1097 31.6386C12.4391 31.8694 9.84413 33.1415 7.59114 35.8236C7.41949 36.028 7.26413 36.2326 7.12401 36.4363ZM24.3231 21.8161L24.2356 21.9678C24.2608 21.9151 24.2901 21.8644 24.3231 21.8161Z" fill="#7F35FF"/>
</svg>
