<svg width="350" height="320" viewBox="0 0 350 320" fill="none" xmlns="http://www.w3.org/2000/svg">
<g filter="url(#filter0_d_1_873)">
<g clip-path="url(#clip0_1_873)">
<g filter="url(#filter1_i_1_873)">
<path d="M132.432 90.5209L239.114 152.113L215.501 193.011C199.425 220.856 163.819 230.397 135.973 214.32L130.13 210.947C120.691 205.497 113.355 197.803 108.408 188.928L108.343 188.998C100.979 176.249 96.406 158.144 101.083 141.796C105.856 125.111 114.94 116.431 118.979 113.823L132.432 90.5209Z" fill="url(#paint0_linear_1_873)"/>
</g>
<path d="M132.432 90.5209L239.114 152.113L215.501 193.011C199.425 220.856 163.819 230.397 135.973 214.32L130.13 210.947C120.691 205.497 113.355 197.803 108.408 188.928L108.343 188.998C100.979 176.249 96.406 158.144 101.083 141.796C105.856 125.111 114.94 116.431 118.979 113.823L132.432 90.5209Z" fill="url(#paint1_radial_1_873)"/>
<path d="M132.432 90.5209L239.114 152.113L215.501 193.011C199.425 220.856 163.819 230.397 135.973 214.32L130.13 210.947C120.691 205.497 113.355 197.803 108.408 188.928L108.343 188.998C100.979 176.249 96.406 158.144 101.083 141.796C105.856 125.111 114.94 116.431 118.979 113.823L132.432 90.5209Z" fill="url(#paint2_radial_1_873)"/>
<g filter="url(#filter2_f_1_873)">
<rect width="64.1806" height="31.3598" rx="15.6799" transform="matrix(-0.866025 -0.5 -0.5 0.866025 200.677 149.937)" fill="url(#paint3_linear_1_873)"/>
</g>
<g filter="url(#filter3_f_1_873)">
<path d="M176.384 143.983C176.399 149.062 178.892 154.033 183.488 156.687C187.564 159.04 191.984 159.755 195.997 158.14C196.77 162.15 199.214 165.815 203.029 168.018C210.006 172.046 218.928 169.656 222.956 162.678L229.801 150.823C233.83 143.845 231.439 134.923 224.462 130.895C221.617 129.253 218.45 128.677 215.423 129.044C216.893 122.621 213.595 117.409 208.023 114.192C203.919 111.822 199.142 111.673 195.084 113.373C197.166 107.139 194.317 100.45 188.28 96.9644C182.876 93.8441 176.287 94.6324 171.788 98.4523C172.602 92.7294 169.949 86.8251 164.636 83.7579C157.659 79.7295 148.737 82.1201 144.708 89.0975L133.735 108.104C129.707 115.081 132.097 124.003 139.075 128.031C143.953 130.848 149.782 130.526 154.224 127.694C151.969 134.093 154.513 141.39 160.602 144.906C165.728 147.866 171.92 147.308 176.384 143.983Z" fill="#9C5A53"/>
</g>
<rect width="34.3748" height="50.5038" rx="17.1874" transform="matrix(-0.866025 -0.5 -0.5 0.866025 250.102 133.082)" fill="url(#paint4_radial_1_873)"/>
<rect width="34.3748" height="50.5038" rx="17.1874" transform="matrix(-0.866025 -0.5 -0.5 0.866025 250.102 133.082)" fill="url(#paint5_radial_1_873)"/>
<rect width="34.3748" height="50.5038" rx="17.1874" transform="matrix(-0.866025 -0.5 -0.5 0.866025 250.102 133.082)" fill="url(#paint6_radial_1_873)"/>
<rect width="34.3748" height="50.5038" rx="17.1874" transform="matrix(-0.866025 -0.5 -0.5 0.866025 250.102 133.082)" fill="url(#paint7_radial_1_873)"/>
<path d="M222.115 128.331C228.062 118.029 224.044 109.598 215.824 104.852C207.603 100.106 197.091 102.923 192.345 111.143L180.933 130.91C176.187 139.131 178.697 150.173 186.917 154.919C195.138 159.665 204.549 158.755 210.702 148.097L222.115 128.331Z" fill="url(#paint8_radial_1_873)"/>
<path d="M222.115 128.331C228.062 118.029 224.044 109.598 215.824 104.852C207.603 100.106 197.091 102.923 192.345 111.143L180.933 130.91C176.187 139.131 178.697 150.173 186.917 154.919C195.138 159.665 204.549 158.755 210.702 148.097L222.115 128.331Z" fill="url(#paint9_radial_1_873)"/>
<path d="M222.115 128.331C228.062 118.029 224.044 109.598 215.824 104.852C207.603 100.106 197.091 102.923 192.345 111.143L180.933 130.91C176.187 139.131 178.697 150.173 186.917 154.919C195.138 159.665 204.549 158.755 210.702 148.097L222.115 128.331Z" fill="url(#paint10_radial_1_873)"/>
<path d="M222.115 128.331C228.062 118.029 224.044 109.598 215.824 104.852C207.603 100.106 197.091 102.923 192.345 111.143L180.933 130.91C176.187 139.131 178.697 150.173 186.917 154.919C195.138 159.665 204.549 158.755 210.702 148.097L222.115 128.331Z" fill="url(#paint11_radial_1_873)"/>
<path d="M222.115 128.331C228.062 118.029 224.044 109.598 215.824 104.852C207.603 100.106 197.091 102.923 192.345 111.143L180.933 130.91C176.187 139.131 178.697 150.173 186.917 154.919C195.138 159.665 204.549 158.755 210.702 148.097L222.115 128.331Z" fill="url(#paint12_radial_1_873)"/>
<rect width="34.3748" height="60.2315" rx="17.1874" transform="matrix(-0.866025 -0.5 -0.5 0.866025 179.616 77.5457)" fill="#7DDE5B" fill-opacity="0.55"/>
<rect width="34.3748" height="60.2315" rx="17.1874" transform="matrix(-0.866025 -0.5 -0.5 0.866025 179.616 77.5457)" fill="url(#paint13_radial_1_873)"/>
<rect width="34.3748" height="60.2315" rx="17.1874" transform="matrix(-0.866025 -0.5 -0.5 0.866025 179.616 77.5457)" fill="url(#paint14_radial_1_873)"/>
<rect width="34.3748" height="60.2315" rx="17.1874" transform="matrix(-0.866025 -0.5 -0.5 0.866025 179.616 77.5457)" fill="url(#paint15_radial_1_873)"/>
<rect width="34.3748" height="60.2315" rx="17.1874" transform="matrix(-0.866025 -0.5 -0.5 0.866025 179.616 77.5457)" fill="url(#paint16_radial_1_873)"/>
<path d="M199.241 106.86C203.918 98.76 200.689 89.1882 192.589 84.5116C184.489 79.835 174.131 82.6103 169.454 90.7104L153.779 117.861C149.103 125.961 151.878 136.318 159.978 140.995C168.078 145.672 178.436 142.896 183.112 134.796L199.241 106.86Z" fill="url(#paint17_radial_1_873)"/>
<path d="M199.241 106.86C203.918 98.76 200.689 89.1882 192.589 84.5116C184.489 79.835 174.131 82.6103 169.454 90.7104L153.779 117.861C149.103 125.961 151.878 136.318 159.978 140.995C168.078 145.672 178.436 142.896 183.112 134.796L199.241 106.86Z" fill="url(#paint18_radial_1_873)"/>
<path d="M199.241 106.86C203.918 98.76 200.689 89.1882 192.589 84.5116C184.489 79.835 174.131 82.6103 169.454 90.7104L153.779 117.861C149.103 125.961 151.878 136.318 159.978 140.995C168.078 145.672 178.436 142.896 183.112 134.796L199.241 106.86Z" fill="url(#paint19_radial_1_873)"/>
<path d="M199.241 106.86C203.918 98.76 200.689 89.1882 192.589 84.5116C184.489 79.835 174.131 82.6103 169.454 90.7104L153.779 117.861C149.103 125.961 151.878 136.318 159.978 140.995C168.078 145.672 178.436 142.896 183.112 134.796L199.241 106.86Z" fill="url(#paint20_radial_1_873)"/>
<path d="M199.241 106.86C203.918 98.76 200.689 89.1882 192.589 84.5116C184.489 79.835 174.131 82.6103 169.454 90.7104L153.779 117.861C149.103 125.961 151.878 136.318 159.978 140.995C168.078 145.672 178.436 142.896 183.112 134.796L199.241 106.86Z" fill="url(#paint21_radial_1_873)"/>
<path d="M173.205 115.922C181.823 120.897 184.994 131.536 180.29 139.684C175.586 147.833 164.786 150.405 156.169 145.43L144.762 138.844C139.641 135.887 133.222 137.416 130.426 142.259L122.838 155.403L121.965 154.899C106.773 146.128 106.573 128.351 113.52 116.32C121.856 101.881 140.991 97.3234 156.26 106.139L173.205 115.922Z" fill="url(#paint22_radial_1_873)"/>
<path d="M173.205 115.922C181.823 120.897 184.994 131.536 180.29 139.684C175.586 147.833 164.786 150.405 156.169 145.43L144.762 138.844C139.641 135.887 133.222 137.416 130.426 142.259L122.838 155.403L121.965 154.899C106.773 146.128 106.573 128.351 113.52 116.32C121.856 101.881 140.991 97.3234 156.26 106.139L173.205 115.922Z" fill="url(#paint23_radial_1_873)"/>
<path d="M173.205 115.922C181.823 120.897 184.994 131.536 180.29 139.684C175.586 147.833 164.786 150.405 156.169 145.43L144.762 138.844C139.641 135.887 133.222 137.416 130.426 142.259L122.838 155.403L121.965 154.899C106.773 146.128 106.573 128.351 113.52 116.32C121.856 101.881 140.991 97.3234 156.26 106.139L173.205 115.922Z" fill="url(#paint24_radial_1_873)"/>
<path d="M173.205 115.922C181.823 120.897 184.994 131.536 180.29 139.684C175.586 147.833 164.786 150.405 156.169 145.43L144.762 138.844C139.641 135.887 133.222 137.416 130.426 142.259L122.838 155.403L121.965 154.899C106.773 146.128 106.573 128.351 113.52 116.32C121.856 101.881 140.991 97.3234 156.26 106.139L173.205 115.922Z" fill="url(#paint25_radial_1_873)"/>
<path d="M173.205 115.922C181.823 120.897 184.994 131.536 180.29 139.684C175.586 147.833 164.786 150.405 156.169 145.43L144.762 138.844C139.641 135.887 133.222 137.416 130.426 142.259L122.838 155.403L121.965 154.899C106.773 146.128 106.573 128.351 113.52 116.32C121.856 101.881 140.991 97.3234 156.26 106.139L173.205 115.922Z" fill="url(#paint26_radial_1_873)"/>
<path d="M173.205 115.922C181.823 120.897 184.994 131.536 180.29 139.684C175.586 147.833 164.786 150.405 156.169 145.43L144.762 138.844C139.641 135.887 133.222 137.416 130.426 142.259L122.838 155.403L121.965 154.899C106.773 146.128 106.573 128.351 113.52 116.32C121.856 101.881 140.991 97.3234 156.26 106.139L173.205 115.922Z" fill="url(#paint27_radial_1_873)"/>
<g filter="url(#filter4_f_1_873)">
<path d="M158.308 123.23L148.924 117.813C135.285 109.17 125.736 110.333 118.086 118.379" stroke="url(#paint28_linear_1_873)" stroke-width="10.125" stroke-linecap="round"/>
</g>
</g>
</g>
<defs>
<filter id="filter0_d_1_873" x="-20" y="-10" width="380" height="380" filterUnits="userSpaceOnUse" color-interpolation-filters="sRGB">
<feFlood flood-opacity="0" result="BackgroundImageFix"/>
<feColorMatrix in="SourceAlpha" type="matrix" values="0 0 0 0 0 0 0 0 0 0 0 0 0 0 0 0 0 0 127 0" result="hardAlpha"/>
<feOffset dy="30"/>
<feGaussianBlur stdDeviation="30"/>
<feColorMatrix type="matrix" values="0 0 0 0 0 0 0 0 0 0 0 0 0 0 0 0 0 0 0.15 0"/>
<feBlend mode="normal" in2="BackgroundImageFix" result="effect1_dropShadow_1_873"/>
<feBlend mode="normal" in="SourceGraphic" in2="effect1_dropShadow_1_873" result="shape"/>
</filter>
<filter id="filter1_i_1_873" x="99.188" y="90.5209" width="139.926" height="131.609" filterUnits="userSpaceOnUse" color-interpolation-filters="sRGB">
<feFlood flood-opacity="0" result="BackgroundImageFix"/>
<feBlend mode="normal" in="SourceGraphic" in2="BackgroundImageFix" result="shape"/>
<feColorMatrix in="SourceAlpha" type="matrix" values="0 0 0 0 0 0 0 0 0 0 0 0 0 0 0 0 0 0 127 0" result="hardAlpha"/>
<feOffset/>
<feGaussianBlur stdDeviation="10.125"/>
<feComposite in2="hardAlpha" operator="arithmetic" k2="-1" k3="1"/>
<feColorMatrix type="matrix" values="0 0 0 0 0.862745 0 0 0 0 0.643137 0 0 0 0 0.572549 0 0 0 1 0"/>
<feBlend mode="normal" in2="shape" result="effect1_innerShadow_1_873"/>
</filter>
<filter id="filter2_f_1_873" x="119.964" y="108.396" width="90.1638" height="78.1504" filterUnits="userSpaceOnUse" color-interpolation-filters="sRGB">
<feFlood flood-opacity="0" result="BackgroundImageFix"/>
<feBlend mode="normal" in="SourceGraphic" in2="BackgroundImageFix" result="shape"/>
<feGaussianBlur stdDeviation="7.59375" result="effect1_foregroundBlur_1_873"/>
</filter>
<filter id="filter3_f_1_873" x="121.653" y="71.676" width="120.23" height="108.424" filterUnits="userSpaceOnUse" color-interpolation-filters="sRGB">
<feFlood flood-opacity="0" result="BackgroundImageFix"/>
<feBlend mode="normal" in="SourceGraphic" in2="BackgroundImageFix" result="shape"/>
<feGaussianBlur stdDeviation="5.0625" result="effect1_foregroundBlur_1_873"/>
</filter>
<filter id="filter4_f_1_873" x="104.417" y="98.1521" width="67.5604" height="38.7479" filterUnits="userSpaceOnUse" color-interpolation-filters="sRGB">
<feFlood flood-opacity="0" result="BackgroundImageFix"/>
<feBlend mode="normal" in="SourceGraphic" in2="BackgroundImageFix" result="shape"/>
<feGaussianBlur stdDeviation="4.30312" result="effect1_foregroundBlur_1_873"/>
</filter>
<linearGradient id="paint0_linear_1_873" x1="158.119" y1="170.384" x2="97.5535" y2="135.417" gradientUnits="userSpaceOnUse">
<stop stop-color="#DDA89A"/>
<stop offset="1" stop-color="#F5C1B2"/>
</linearGradient>
<radialGradient id="paint1_radial_1_873" cx="0" cy="0" r="1" gradientUnits="userSpaceOnUse" gradientTransform="translate(162.507 158.136) rotate(120) scale(66.0142 104.428)">
<stop offset="0.657259" stop-color="#B67995" stop-opacity="0"/>
<stop offset="1" stop-color="#B67995"/>
</radialGradient>
<radialGradient id="paint2_radial_1_873" cx="0" cy="0" r="1" gradientUnits="userSpaceOnUse" gradientTransform="translate(161.536 154.621) rotate(45.9259) scale(70.5734 97.1702)">
<stop offset="0.833799" stop-color="#ECB09B" stop-opacity="0"/>
<stop offset="1" stop-color="#ECB09B"/>
</radialGradient>
<linearGradient id="paint3_linear_1_873" x1="51.1978" y1="21.9604" x2="-8.65447" y2="41.9863" gradientUnits="userSpaceOnUse">
<stop stop-color="#AF7068"/>
<stop offset="1" stop-color="#AF7068" stop-opacity="0"/>
</linearGradient>
<radialGradient id="paint4_radial_1_873" cx="0" cy="0" r="1" gradientUnits="userSpaceOnUse" gradientTransform="translate(24.0128 26.833) rotate(-180) scale(19.4004 44.2282)">
<stop stop-color="#F8C7B2"/>
<stop offset="0.582184" stop-color="#E8B69E"/>
<stop offset="1" stop-color="#E2AD92"/>
</radialGradient>
<radialGradient id="paint5_radial_1_873" cx="0" cy="0" r="1" gradientUnits="userSpaceOnUse" gradientTransform="translate(31.2515 25.2519) rotate(-180) scale(8.50265 50.7196)">
<stop offset="0.413043" stop-color="#D1A083"/>
<stop offset="1" stop-color="#D1A083" stop-opacity="0"/>
</radialGradient>
<radialGradient id="paint6_radial_1_873" cx="0" cy="0" r="1" gradientUnits="userSpaceOnUse" gradientTransform="translate(3.60698 1.99068) rotate(53.0969) scale(10.3538 20.213)">
<stop stop-color="#D7AB93"/>
<stop offset="1" stop-color="#D7AB93" stop-opacity="0"/>
</radialGradient>
<radialGradient id="paint7_radial_1_873" cx="0" cy="0" r="1" gradientUnits="userSpaceOnUse" gradientTransform="translate(17.1874 9.75343) rotate(90) scale(40.7503 35.3578)">
<stop offset="0.666613" stop-color="#C38586" stop-opacity="0"/>
<stop offset="1" stop-color="#C38586"/>
</radialGradient>
<radialGradient id="paint8_radial_1_873" cx="0" cy="0" r="1" gradientUnits="userSpaceOnUse" gradientTransform="translate(194.555 128.04) rotate(30) scale(19.4004 50.6285)">
<stop stop-color="#FFD6BA"/>
<stop offset="0.582184" stop-color="#EFBDA3"/>
<stop offset="1" stop-color="#D69F88"/>
</radialGradient>
<radialGradient id="paint9_radial_1_873" cx="0" cy="0" r="1" gradientUnits="userSpaceOnUse" gradientTransform="translate(187.792 122.046) rotate(30) scale(6.68608 45.6551)">
<stop offset="0.131579" stop-color="#D39A76"/>
<stop offset="1" stop-color="#D39A76" stop-opacity="0"/>
</radialGradient>
<radialGradient id="paint10_radial_1_873" cx="0" cy="0" r="1" gradientUnits="userSpaceOnUse" gradientTransform="translate(226.445 113.616) rotate(153.264) scale(11.3348 21.1356)">
<stop stop-color="#D7AB93"/>
<stop offset="1" stop-color="#D7AB93" stop-opacity="0"/>
</radialGradient>
<radialGradient id="paint11_radial_1_873" cx="0" cy="0" r="1" gradientUnits="userSpaceOnUse" gradientTransform="translate(210.241 114.521) rotate(120) scale(46.6473 35.3578)">
<stop offset="0.666613" stop-color="#C38586" stop-opacity="0"/>
<stop offset="1" stop-color="#C38586"/>
</radialGradient>
<radialGradient id="paint12_radial_1_873" cx="0" cy="0" r="1" gradientUnits="userSpaceOnUse" gradientTransform="translate(229.435 109.753) rotate(163.069) scale(14.1778 17.3532)">
<stop stop-color="#D2A68B"/>
<stop offset="1" stop-color="#D2A68B" stop-opacity="0"/>
</radialGradient>
<radialGradient id="paint13_radial_1_873" cx="0" cy="0" r="1" gradientUnits="userSpaceOnUse" gradientTransform="translate(25.7094 27.9891) rotate(-180) scale(22.9888 62.5038)">
<stop stop-color="#FFE8CA"/>
<stop offset="0.582184" stop-color="#F7BB9D"/>
<stop offset="1" stop-color="#DCA486"/>
<stop offset="1" stop-color="#F0A47D"/>
</radialGradient>
<radialGradient id="paint14_radial_1_873" cx="0" cy="0" r="1" gradientUnits="userSpaceOnUse" gradientTransform="translate(38.9469 31.2443) rotate(180) scale(9.59733 68.2767)">
<stop offset="0.131579" stop-color="#E8AC88"/>
<stop offset="1" stop-color="#E8AC88" stop-opacity="0"/>
</radialGradient>
<radialGradient id="paint15_radial_1_873" cx="0" cy="0" r="1" gradientUnits="userSpaceOnUse" gradientTransform="translate(3.60698 2.37411) rotate(57.8043) scale(11.6684 21.3904)">
<stop stop-color="#D7AB93"/>
<stop offset="1" stop-color="#D7AB93" stop-opacity="0"/>
</radialGradient>
<radialGradient id="paint16_radial_1_873" cx="0" cy="0" r="1" gradientUnits="userSpaceOnUse" gradientTransform="translate(2.94891 -2.66859) rotate(48.1004) scale(14.4974 17.6808)">
<stop stop-color="#D2A68B"/>
<stop offset="1" stop-color="#D2A68B" stop-opacity="0"/>
</radialGradient>
<radialGradient id="paint17_radial_1_873" cx="0" cy="0" r="1" gradientUnits="userSpaceOnUse" gradientTransform="translate(169.438 111.159) rotate(30) scale(19.1159 57.117)">
<stop stop-color="#FFE5C7"/>
<stop offset="0.582184" stop-color="#F6C2A7"/>
<stop offset="1" stop-color="#DCA486"/>
</radialGradient>
<radialGradient id="paint18_radial_1_873" cx="0" cy="0" r="1" gradientUnits="userSpaceOnUse" gradientTransform="translate(157.104 103.091) rotate(30) scale(9.45661 73.9331)">
<stop offset="0.131579" stop-color="#E8AC88"/>
<stop offset="1" stop-color="#E8AC88" stop-opacity="0"/>
</radialGradient>
<radialGradient id="paint19_radial_1_873" cx="0" cy="0" r="1" gradientUnits="userSpaceOnUse" gradientTransform="translate(202.892 93.4286) rotate(149.81) scale(12.3228 21.611)">
<stop stop-color="#D7AB93"/>
<stop offset="1" stop-color="#D7AB93" stop-opacity="0"/>
</radialGradient>
<radialGradient id="paint20_radial_1_873" cx="0" cy="0" r="1" gradientUnits="userSpaceOnUse" gradientTransform="translate(186.291 95.4198) rotate(120) scale(52.6257 34.8393)">
<stop offset="0.666613" stop-color="#C38586" stop-opacity="0"/>
<stop offset="1" stop-color="#C38586"/>
</radialGradient>
<radialGradient id="paint21_radial_1_873" cx="0" cy="0" r="1" gradientUnits="userSpaceOnUse" gradientTransform="translate(206.184 89.0239) rotate(159.23) scale(15.0844 18.1308)">
<stop stop-color="#D2A68B"/>
<stop offset="1" stop-color="#D2A68B" stop-opacity="0"/>
</radialGradient>
<radialGradient id="paint22_radial_1_873" cx="0" cy="0" r="1" gradientUnits="userSpaceOnUse" gradientTransform="translate(146.387 107.394) rotate(106.541) scale(28.3888 61.6102)">
<stop stop-color="#FFDABA"/>
<stop offset="1" stop-color="#EDB8A9"/>
</radialGradient>
<radialGradient id="paint23_radial_1_873" cx="0" cy="0" r="1" gradientUnits="userSpaceOnUse" gradientTransform="translate(147.022 146.113) rotate(120) scale(14.0322 32.4829)">
<stop offset="0.444526" stop-color="#BD8088"/>
<stop offset="1" stop-color="#BD8088" stop-opacity="0"/>
</radialGradient>
<radialGradient id="paint24_radial_1_873" cx="0" cy="0" r="1" gradientUnits="userSpaceOnUse" gradientTransform="translate(121.635 154.708) rotate(-96.9507) scale(22.6039 36.1739)">
<stop offset="0.385501" stop-color="#EBB7A8"/>
<stop offset="1" stop-color="#EBB7A8" stop-opacity="0"/>
</radialGradient>
<radialGradient id="paint25_radial_1_873" cx="0" cy="0" r="1" gradientUnits="userSpaceOnUse" gradientTransform="translate(182.396 141.511) rotate(-150) scale(18.968 27.4646)">
<stop stop-color="#DCA892"/>
<stop offset="1" stop-color="#DCA892" stop-opacity="0"/>
</radialGradient>
<radialGradient id="paint26_radial_1_873" cx="0" cy="0" r="1" gradientUnits="userSpaceOnUse" gradientTransform="translate(165.185 151.763) rotate(-109.844) scale(19.76 20.471)">
<stop stop-color="#C78C90"/>
<stop offset="1" stop-color="#C78C90" stop-opacity="0"/>
</radialGradient>
<radialGradient id="paint27_radial_1_873" cx="0" cy="0" r="1" gradientUnits="userSpaceOnUse" gradientTransform="translate(171.654 149.307) rotate(-109.193) scale(7.62571 12.7635)">
<stop stop-color="#D89D90"/>
<stop offset="1" stop-color="#D89D90" stop-opacity="0"/>
</radialGradient>
<linearGradient id="paint28_linear_1_873" x1="157.924" y1="123.897" x2="99.0297" y2="111.469" gradientUnits="userSpaceOnUse">
<stop stop-color="#FFDDC2"/>
<stop offset="1" stop-color="#FFDDC2" stop-opacity="0"/>
</linearGradient>
<clipPath id="clip0_1_873">
<rect width="176" height="176" fill="white" transform="matrix(-0.866025 -0.5 -0.5 0.866025 290 118)"/>
</clipPath>
</defs>
</svg>
