<svg width="361" height="320" viewBox="0 0 361 320" fill="none" xmlns="http://www.w3.org/2000/svg">
<g filter="url(#filter0_d_1_886)">
<g clip-path="url(#clip0_1_886)">
<path d="M220.732 97.8492C223.489 91.0524 220.214 83.3076 213.418 80.55C206.62 77.7919 198.874 81.067 196.117 87.8647L182.314 121.892C184.455 110.59 186.282 99.6913 187.079 91.8662C188.205 84.7132 184.807 77.7538 176.725 75.7671C169.292 74.2045 162.243 79.5636 161.134 87.0451C159.184 100.198 155.763 119.72 151.283 135.948C147.028 130.341 143.947 122.013 140.838 114.637C136.439 105.498 128.515 103.049 121.458 106.508C115.014 109.665 112.071 117.238 114.69 123.918L120.897 139.747C121.817 142.702 123.69 149.491 125.231 158.169C126.383 164.657 126.616 168.704 126.859 172.925C127.06 176.402 127.267 179.997 128 185.171C129.049 192.581 131.321 198.153 133.069 201.742L133.129 201.733C137.001 210.022 143.366 217.249 151.89 222.171C167.084 230.943 185.186 230.112 199.17 221.561C211.628 214.198 219.141 203.498 225.968 193.774C227.628 191.411 229.247 189.105 230.886 186.919C236.2 179.067 240.779 173.806 243.615 170.713L255.69 158.109C260.765 152.812 260.585 144.405 255.288 139.33C249.991 134.256 241.584 134.436 236.51 139.733L226.016 150.686L242.108 127.368C246.274 121.33 244.757 113.059 238.72 108.893C232.683 104.727 224.411 106.243 220.245 112.28L207.225 131.148L220.732 97.8492Z" fill="#FCC5B2"/>
<path d="M220.732 97.8492C223.489 91.0524 220.214 83.3076 213.418 80.55C206.62 77.7919 198.874 81.067 196.117 87.8647L182.314 121.892C184.455 110.59 186.282 99.6913 187.079 91.8662C188.205 84.7132 184.807 77.7538 176.725 75.7671C169.292 74.2045 162.243 79.5636 161.134 87.0451C159.184 100.198 155.763 119.72 151.283 135.948C147.028 130.341 143.947 122.013 140.838 114.637C136.439 105.498 128.515 103.049 121.458 106.508C115.014 109.665 112.071 117.238 114.69 123.918L120.897 139.747C121.817 142.702 123.69 149.491 125.231 158.169C126.383 164.657 126.616 168.704 126.859 172.925C127.06 176.402 127.267 179.997 128 185.171C129.049 192.581 131.321 198.153 133.069 201.742L133.129 201.733C137.001 210.022 143.366 217.249 151.89 222.171C167.084 230.943 185.186 230.112 199.17 221.561C211.628 214.198 219.141 203.498 225.968 193.774C227.628 191.411 229.247 189.105 230.886 186.919C236.2 179.067 240.779 173.806 243.615 170.713L255.69 158.109C260.765 152.812 260.585 144.405 255.288 139.33C249.991 134.256 241.584 134.436 236.51 139.733L226.016 150.686L242.108 127.368C246.274 121.33 244.757 113.059 238.72 108.893C232.683 104.727 224.411 106.243 220.245 112.28L207.225 131.148L220.732 97.8492Z" fill="url(#paint0_radial_1_886)"/>
<path d="M220.732 97.8492C223.489 91.0524 220.214 83.3076 213.418 80.55C206.62 77.7919 198.874 81.067 196.117 87.8647L182.314 121.892C184.455 110.59 186.282 99.6913 187.079 91.8662C188.205 84.7132 184.807 77.7538 176.725 75.7671C169.292 74.2045 162.243 79.5636 161.134 87.0451C159.184 100.198 155.763 119.72 151.283 135.948C147.028 130.341 143.947 122.013 140.838 114.637C136.439 105.498 128.515 103.049 121.458 106.508C115.014 109.665 112.071 117.238 114.69 123.918L120.897 139.747C121.817 142.702 123.69 149.491 125.231 158.169C126.383 164.657 126.616 168.704 126.859 172.925C127.06 176.402 127.267 179.997 128 185.171C129.049 192.581 131.321 198.153 133.069 201.742L133.129 201.733C137.001 210.022 143.366 217.249 151.89 222.171C167.084 230.943 185.186 230.112 199.17 221.561C211.628 214.198 219.141 203.498 225.968 193.774C227.628 191.411 229.247 189.105 230.886 186.919C236.2 179.067 240.779 173.806 243.615 170.713L255.69 158.109C260.765 152.812 260.585 144.405 255.288 139.33C249.991 134.256 241.584 134.436 236.51 139.733L226.016 150.686L242.108 127.368C246.274 121.33 244.757 113.059 238.72 108.893C232.683 104.727 224.411 106.243 220.245 112.28L207.225 131.148L220.732 97.8492Z" fill="url(#paint1_radial_1_886)"/>
<path d="M220.732 97.8492C223.489 91.0524 220.214 83.3076 213.418 80.55C206.62 77.7919 198.874 81.067 196.117 87.8647L182.314 121.892C184.455 110.59 186.282 99.6913 187.079 91.8662C188.205 84.7132 184.807 77.7538 176.725 75.7671C169.292 74.2045 162.243 79.5636 161.134 87.0451C159.184 100.198 155.763 119.72 151.283 135.948C147.028 130.341 143.947 122.013 140.838 114.637C136.439 105.498 128.515 103.049 121.458 106.508C115.014 109.665 112.071 117.238 114.69 123.918L120.897 139.747C121.817 142.702 123.69 149.491 125.231 158.169C126.383 164.657 126.616 168.704 126.859 172.925C127.06 176.402 127.267 179.997 128 185.171C129.049 192.581 131.321 198.153 133.069 201.742L133.129 201.733C137.001 210.022 143.366 217.249 151.89 222.171C167.084 230.943 185.186 230.112 199.17 221.561C211.628 214.198 219.141 203.498 225.968 193.774C227.628 191.411 229.247 189.105 230.886 186.919C236.2 179.067 240.779 173.806 243.615 170.713L255.69 158.109C260.765 152.812 260.585 144.405 255.288 139.33C249.991 134.256 241.584 134.436 236.51 139.733L226.016 150.686L242.108 127.368C246.274 121.33 244.757 113.059 238.72 108.893C232.683 104.727 224.411 106.243 220.245 112.28L207.225 131.148L220.732 97.8492Z" fill="url(#paint2_radial_1_886)"/>
<path d="M220.732 97.8492C223.489 91.0524 220.214 83.3076 213.418 80.55C206.62 77.7919 198.874 81.067 196.117 87.8647L182.314 121.892C184.455 110.59 186.282 99.6913 187.079 91.8662C188.205 84.7132 184.807 77.7538 176.725 75.7671C169.292 74.2045 162.243 79.5636 161.134 87.0451C159.184 100.198 155.763 119.72 151.283 135.948C147.028 130.341 143.947 122.013 140.838 114.637C136.439 105.498 128.515 103.049 121.458 106.508C115.014 109.665 112.071 117.238 114.69 123.918L120.897 139.747C121.817 142.702 123.69 149.491 125.231 158.169C126.383 164.657 126.616 168.704 126.859 172.925C127.06 176.402 127.267 179.997 128 185.171C129.049 192.581 131.321 198.153 133.069 201.742L133.129 201.733C137.001 210.022 143.366 217.249 151.89 222.171C167.084 230.943 185.186 230.112 199.17 221.561C211.628 214.198 219.141 203.498 225.968 193.774C227.628 191.411 229.247 189.105 230.886 186.919C236.2 179.067 240.779 173.806 243.615 170.713L255.69 158.109C260.765 152.812 260.585 144.405 255.288 139.33C249.991 134.256 241.584 134.436 236.51 139.733L226.016 150.686L242.108 127.368C246.274 121.33 244.757 113.059 238.72 108.893C232.683 104.727 224.411 106.243 220.245 112.28L207.225 131.148L220.732 97.8492Z" fill="url(#paint3_radial_1_886)"/>
<path d="M230.309 187.694C230.501 187.434 230.694 187.176 230.886 186.919C236.2 179.067 240.779 173.806 243.614 170.713L255.69 158.109C260.764 152.812 260.584 144.405 255.288 139.33C249.991 134.256 241.584 134.436 236.509 139.733L226.027 150.674L212.755 164.097C206.249 172.438 215.648 188.469 230.309 187.694Z" fill="url(#paint4_linear_1_886)"/>
<path d="M230.309 187.694C230.501 187.434 230.694 187.176 230.886 186.919C236.2 179.067 240.779 173.806 243.614 170.713L255.69 158.109C260.764 152.812 260.584 144.405 255.288 139.33C249.991 134.256 241.584 134.436 236.509 139.733L226.027 150.674L212.755 164.097C206.249 172.438 215.648 188.469 230.309 187.694Z" fill="url(#paint5_radial_1_886)"/>
<path d="M230.309 187.694C230.501 187.434 230.694 187.176 230.886 186.919C236.2 179.067 240.779 173.806 243.614 170.713L255.69 158.109C260.764 152.812 260.584 144.405 255.288 139.33C249.991 134.256 241.584 134.436 236.509 139.733L226.027 150.674L212.755 164.097C206.249 172.438 215.648 188.469 230.309 187.694Z" fill="url(#paint6_linear_1_886)"/>
<path d="M230.309 187.694C230.501 187.434 230.694 187.176 230.886 186.919C236.2 179.067 240.779 173.806 243.614 170.713L255.69 158.109C260.764 152.812 260.584 144.405 255.288 139.33C249.991 134.256 241.584 134.436 236.509 139.733L226.027 150.674L212.755 164.097C206.249 172.438 215.648 188.469 230.309 187.694Z" fill="url(#paint7_radial_1_886)"/>
<g filter="url(#filter1_f_1_886)">
<path d="M245.83 145.29L218.182 173.585" stroke="#FFDAC3" stroke-width="7.7" stroke-linecap="round"/>
</g>
<path d="M194.555 149.471C192.45 153.118 191.537 159.339 197.336 164.076C203.497 169.109 211.238 165.363 213.613 163.426L226.147 150.569L242.108 127.368C246.274 121.331 244.757 113.06 238.72 108.893C232.683 104.727 224.411 106.244 220.245 112.281L194.555 149.471Z" fill="url(#paint8_linear_1_886)"/>
<path d="M194.555 149.471C192.45 153.118 191.537 159.339 197.336 164.076C203.497 169.109 211.238 165.363 213.613 163.426L226.147 150.569L242.108 127.368C246.274 121.331 244.757 113.06 238.72 108.893C232.683 104.727 224.411 106.244 220.245 112.281L194.555 149.471Z" fill="url(#paint9_linear_1_886)"/>
<path d="M194.555 149.471C192.45 153.118 191.537 159.339 197.336 164.076C203.497 169.109 211.238 165.363 213.613 163.426L226.147 150.569L242.108 127.368C246.274 121.331 244.757 113.06 238.72 108.893C232.683 104.727 224.411 106.244 220.245 112.281L194.555 149.471Z" fill="url(#paint10_radial_1_886)"/>
<path d="M194.555 149.471C192.45 153.118 191.537 159.339 197.336 164.076C203.497 169.109 211.238 165.363 213.613 163.426L226.147 150.569L242.108 127.368C246.274 121.331 244.757 113.06 238.72 108.893C232.683 104.727 224.411 106.244 220.245 112.281L194.555 149.471Z" fill="url(#paint11_linear_1_886)"/>
<path d="M194.555 149.471C192.45 153.118 191.537 159.339 197.336 164.076C203.497 169.109 211.238 165.363 213.613 163.426L226.147 150.569L242.108 127.368C246.274 121.331 244.757 113.06 238.72 108.893C232.683 104.727 224.411 106.244 220.245 112.281L194.555 149.471Z" fill="url(#paint12_radial_1_886)"/>
<g filter="url(#filter2_f_1_886)">
<path d="M229.695 116.968L207.755 147.283" stroke="#FFDAC2" stroke-width="8.25" stroke-linecap="round"/>
</g>
<path d="M195.346 148.326C193.079 148.839 190.441 148.9 187.472 148.16C178.52 145.928 178.459 136.357 180.128 131.317L182.314 121.892L196.116 87.8645C198.874 81.0668 206.62 77.7917 213.417 80.5497C220.214 83.3074 223.488 91.0522 220.731 97.849L207.243 131.103L195.346 148.326Z" fill="url(#paint13_linear_1_886)"/>
<path d="M195.346 148.326C193.079 148.839 190.441 148.9 187.472 148.16C178.52 145.928 178.459 136.357 180.128 131.317L182.314 121.892L196.116 87.8645C198.874 81.0668 206.62 77.7917 213.417 80.5497C220.214 83.3074 223.488 91.0522 220.731 97.849L207.243 131.103L195.346 148.326Z" fill="url(#paint14_linear_1_886)"/>
<path d="M195.346 148.326C193.079 148.839 190.441 148.9 187.472 148.16C178.52 145.928 178.459 136.357 180.128 131.317L182.314 121.892L196.116 87.8645C198.874 81.0668 206.62 77.7917 213.417 80.5497C220.214 83.3074 223.488 91.0522 220.731 97.849L207.243 131.103L195.346 148.326Z" fill="url(#paint15_radial_1_886)"/>
<path d="M195.346 148.326C193.079 148.839 190.441 148.9 187.472 148.16C178.52 145.928 178.459 136.357 180.128 131.317L182.314 121.892L196.116 87.8645C198.874 81.0668 206.62 77.7917 213.417 80.5497C220.214 83.3074 223.488 91.0522 220.731 97.849L207.243 131.103L195.346 148.326Z" fill="url(#paint16_radial_1_886)"/>
<path d="M195.346 148.326C193.079 148.839 190.441 148.9 187.472 148.16C178.52 145.928 178.459 136.357 180.128 131.317L182.314 121.892L196.116 87.8645C198.874 81.0668 206.62 77.7917 213.417 80.5497C220.214 83.3074 223.488 91.0522 220.731 97.849L207.243 131.103L195.346 148.326Z" fill="url(#paint17_radial_1_886)"/>
<path d="M195.346 148.326C193.079 148.839 190.441 148.9 187.472 148.16C178.52 145.928 178.459 136.357 180.128 131.317L182.314 121.892L196.116 87.8645C198.874 81.0668 206.62 77.7917 213.417 80.5497C220.214 83.3074 223.488 91.0522 220.731 97.849L207.243 131.103L195.346 148.326Z" fill="url(#paint18_linear_1_886)"/>
<g filter="url(#filter3_f_1_886)">
<path d="M206.428 90.9503L186.198 136.13" stroke="url(#paint19_linear_1_886)" stroke-width="8.25" stroke-linecap="round"/>
</g>
<path d="M151.253 135.91C151.263 135.923 151.272 135.935 151.282 135.948C151.282 135.948 151.281 135.948 151.282 135.948C151.842 133.919 152.386 131.84 152.912 129.728C156.595 114.94 159.428 98.5544 161.134 87.0455C161.272 86.1103 161.504 85.2083 161.817 84.3488C164.011 78.3324 170.221 74.4002 176.725 75.7675C184.807 77.7542 188.205 84.7136 187.078 91.8666C186.698 95.5959 186.085 100.023 185.315 104.86C184.469 110.172 183.434 115.977 182.314 121.893L182.382 121.725L182.319 121.953L179.583 133.273C178.726 136.778 175.754 144.271 166.385 144.702C157.017 145.133 151.222 139.747 151.255 135.966L151.253 135.91Z" fill="url(#paint20_linear_1_886)"/>
<path d="M151.253 135.91C151.263 135.923 151.272 135.935 151.282 135.948C151.282 135.948 151.281 135.948 151.282 135.948C151.842 133.919 152.386 131.84 152.912 129.728C156.595 114.94 159.428 98.5544 161.134 87.0455C161.272 86.1103 161.504 85.2083 161.817 84.3488C164.011 78.3324 170.221 74.4002 176.725 75.7675C184.807 77.7542 188.205 84.7136 187.078 91.8666C186.698 95.5959 186.085 100.023 185.315 104.86C184.469 110.172 183.434 115.977 182.314 121.893L182.382 121.725L182.319 121.953L179.583 133.273C178.726 136.778 175.754 144.271 166.385 144.702C157.017 145.133 151.222 139.747 151.255 135.966L151.253 135.91Z" fill="url(#paint21_linear_1_886)"/>
<path d="M151.253 135.91C151.263 135.923 151.272 135.935 151.282 135.948C151.282 135.948 151.281 135.948 151.282 135.948C151.842 133.919 152.386 131.84 152.912 129.728C156.595 114.94 159.428 98.5544 161.134 87.0455C161.272 86.1103 161.504 85.2083 161.817 84.3488C164.011 78.3324 170.221 74.4002 176.725 75.7675C184.807 77.7542 188.205 84.7136 187.078 91.8666C186.698 95.5959 186.085 100.023 185.315 104.86C184.469 110.172 183.434 115.977 182.314 121.893L182.382 121.725L182.319 121.953L179.583 133.273C178.726 136.778 175.754 144.271 166.385 144.702C157.017 145.133 151.222 139.747 151.255 135.966L151.253 135.91Z" fill="url(#paint22_radial_1_886)"/>
<g filter="url(#filter4_f_1_886)">
<path d="M156.441 139.175C158.191 132.247 163.9 110.1 168.168 86.2077" stroke="url(#paint23_linear_1_886)" stroke-width="4.125" stroke-linecap="round"/>
</g>
<g filter="url(#filter5_f_1_886)">
<path d="M124.532 114.005C128.534 121.74 136.74 141.535 137.55 158.832" stroke="url(#paint24_linear_1_886)" stroke-width="5.5" stroke-linecap="round"/>
</g>
<path d="M220.732 97.8492C223.489 91.0524 220.214 83.3076 213.418 80.55C206.62 77.7919 198.874 81.067 196.117 87.8647L182.314 121.892C184.455 110.59 186.282 99.6913 187.079 91.8662C188.205 84.7132 184.807 77.7538 176.725 75.7671C169.292 74.2045 162.243 79.5636 161.134 87.0451C159.184 100.198 155.763 119.72 151.283 135.948C147.028 130.341 143.947 122.013 140.838 114.637C136.439 105.498 128.515 103.049 121.458 106.508C115.014 109.665 112.071 117.238 114.69 123.918L120.897 139.747C121.817 142.702 123.69 149.491 125.231 158.169C126.383 164.657 126.616 168.704 126.859 172.925C127.06 176.402 127.267 179.997 128 185.171C129.049 192.581 131.321 198.153 133.069 201.742L133.129 201.733C137.001 210.022 143.366 217.249 151.89 222.171C167.084 230.943 185.186 230.112 199.17 221.561C211.628 214.198 219.141 203.498 225.968 193.774C227.628 191.411 229.247 189.105 230.886 186.919C236.2 179.067 240.779 173.806 243.615 170.713L255.69 158.109C260.765 152.812 260.585 144.405 255.288 139.33C249.991 134.256 241.584 134.436 236.51 139.733L226.016 150.686L242.108 127.368C246.274 121.33 244.757 113.059 238.72 108.893C232.683 104.727 224.411 106.243 220.245 112.28L207.225 131.148L220.732 97.8492Z" fill="url(#paint25_radial_1_886)"/>
<path d="M220.732 97.8492C223.489 91.0524 220.214 83.3076 213.418 80.55C206.62 77.7919 198.874 81.067 196.117 87.8647L182.314 121.892C184.455 110.59 186.282 99.6913 187.079 91.8662C188.205 84.7132 184.807 77.7538 176.725 75.7671C169.292 74.2045 162.243 79.5636 161.134 87.0451C159.184 100.198 155.763 119.72 151.283 135.948C147.028 130.341 143.947 122.013 140.838 114.637C136.439 105.498 128.515 103.049 121.458 106.508C115.014 109.665 112.071 117.238 114.69 123.918L120.897 139.747C121.817 142.702 123.69 149.491 125.231 158.169C126.383 164.657 126.616 168.704 126.859 172.925C127.06 176.402 127.267 179.997 128 185.171C129.049 192.581 131.321 198.153 133.069 201.742L133.129 201.733C137.001 210.022 143.366 217.249 151.89 222.171C167.084 230.943 185.186 230.112 199.17 221.561C211.628 214.198 219.141 203.498 225.968 193.774C227.628 191.411 229.247 189.105 230.886 186.919C236.2 179.067 240.779 173.806 243.615 170.713L255.69 158.109C260.765 152.812 260.585 144.405 255.288 139.33C249.991 134.256 241.584 134.436 236.51 139.733L226.016 150.686L242.108 127.368C246.274 121.33 244.757 113.059 238.72 108.893C232.683 104.727 224.411 106.243 220.245 112.28L207.225 131.148L220.732 97.8492Z" fill="url(#paint26_radial_1_886)"/>
<path d="M220.732 97.8492C223.489 91.0524 220.214 83.3076 213.418 80.55C206.62 77.7919 198.874 81.067 196.117 87.8647L182.314 121.892C184.455 110.59 186.282 99.6913 187.079 91.8662C188.205 84.7132 184.807 77.7538 176.725 75.7671C169.292 74.2045 162.243 79.5636 161.134 87.0451C159.184 100.198 155.763 119.72 151.283 135.948C147.028 130.341 143.947 122.013 140.838 114.637C136.439 105.498 128.515 103.049 121.458 106.508C115.014 109.665 112.071 117.238 114.69 123.918L120.897 139.747C121.817 142.702 123.69 149.491 125.231 158.169C126.383 164.657 126.616 168.704 126.859 172.925C127.06 176.402 127.267 179.997 128 185.171C129.049 192.581 131.321 198.153 133.069 201.742L133.129 201.733C137.001 210.022 143.366 217.249 151.89 222.171C167.084 230.943 185.186 230.112 199.17 221.561C211.628 214.198 219.141 203.498 225.968 193.774C227.628 191.411 229.247 189.105 230.886 186.919C236.2 179.067 240.779 173.806 243.615 170.713L255.69 158.109C260.765 152.812 260.585 144.405 255.288 139.33C249.991 134.256 241.584 134.436 236.51 139.733L226.016 150.686L242.108 127.368C246.274 121.33 244.757 113.059 238.72 108.893C232.683 104.727 224.411 106.243 220.245 112.28L207.225 131.148L220.732 97.8492Z" fill="url(#paint27_radial_1_886)"/>
<path d="M220.732 97.8492C223.489 91.0524 220.214 83.3076 213.418 80.55C206.62 77.7919 198.874 81.067 196.117 87.8647L182.314 121.892C184.455 110.59 186.282 99.6913 187.079 91.8662C188.205 84.7132 184.807 77.7538 176.725 75.7671C169.292 74.2045 162.243 79.5636 161.134 87.0451C159.184 100.198 155.763 119.72 151.283 135.948C147.028 130.341 143.947 122.013 140.838 114.637C136.439 105.498 128.515 103.049 121.458 106.508C115.014 109.665 112.071 117.238 114.69 123.918L120.897 139.747C121.817 142.702 123.69 149.491 125.231 158.169C126.383 164.657 126.616 168.704 126.859 172.925C127.06 176.402 127.267 179.997 128 185.171C129.049 192.581 131.321 198.153 133.069 201.742L133.129 201.733C137.001 210.022 143.366 217.249 151.89 222.171C167.084 230.943 185.186 230.112 199.17 221.561C211.628 214.198 219.141 203.498 225.968 193.774C227.628 191.411 229.247 189.105 230.886 186.919C236.2 179.067 240.779 173.806 243.615 170.713L255.69 158.109C260.765 152.812 260.585 144.405 255.288 139.33C249.991 134.256 241.584 134.436 236.51 139.733L226.016 150.686L242.108 127.368C246.274 121.33 244.757 113.059 238.72 108.893C232.683 104.727 224.411 106.243 220.245 112.28L207.225 131.148L220.732 97.8492Z" fill="url(#paint28_radial_1_886)"/>
<path d="M220.732 97.8492C223.489 91.0524 220.214 83.3076 213.418 80.55C206.62 77.7919 198.874 81.067 196.117 87.8647L182.314 121.892C184.455 110.59 186.282 99.6913 187.079 91.8662C188.205 84.7132 184.807 77.7538 176.725 75.7671C169.292 74.2045 162.243 79.5636 161.134 87.0451C159.184 100.198 155.763 119.72 151.283 135.948C147.028 130.341 143.947 122.013 140.838 114.637C136.439 105.498 128.515 103.049 121.458 106.508C115.014 109.665 112.071 117.238 114.69 123.918L120.897 139.747C121.817 142.702 123.69 149.491 125.231 158.169C126.383 164.657 126.616 168.704 126.859 172.925C127.06 176.402 127.267 179.997 128 185.171C129.049 192.581 131.321 198.153 133.069 201.742L133.129 201.733C137.001 210.022 143.366 217.249 151.89 222.171C167.084 230.943 185.186 230.112 199.17 221.561C211.628 214.198 219.141 203.498 225.968 193.774C227.628 191.411 229.247 189.105 230.886 186.919C236.2 179.067 240.779 173.806 243.615 170.713L255.69 158.109C260.765 152.812 260.585 144.405 255.288 139.33C249.991 134.256 241.584 134.436 236.51 139.733L226.016 150.686L242.108 127.368C246.274 121.33 244.757 113.059 238.72 108.893C232.683 104.727 224.411 106.243 220.245 112.28L207.225 131.148L220.732 97.8492Z" fill="url(#paint29_radial_1_886)"/>
<g filter="url(#filter6_f_1_886)">
<path d="M218.125 181.59C215.556 176.931 214.071 172.799 214.846 166.3" stroke="url(#paint30_linear_1_886)" stroke-width="2.75" stroke-linecap="round"/>
</g>
<g filter="url(#filter7_f_1_886)">
<path d="M208.823 158.514C204.811 155.02 201.998 151.649 200.494 145.28" stroke="url(#paint31_linear_1_886)" stroke-width="2.75" stroke-linecap="round"/>
</g>
<g filter="url(#filter8_f_1_886)">
<path d="M193.627 141.985C189.255 143.55 182.742 142.909 179.31 138.762" stroke="url(#paint32_linear_1_886)" stroke-width="2.75" stroke-linecap="round"/>
</g>
<g filter="url(#filter9_f_1_886)">
<path d="M167.472 142.94C163.1 144.505 156.587 143.864 153.155 139.717" stroke="url(#paint33_linear_1_886)" stroke-width="2.75" stroke-linecap="round"/>
</g>
</g>
</g>
<defs>
<filter id="filter0_d_1_886" x="-9" y="-10" width="380" height="380" filterUnits="userSpaceOnUse" color-interpolation-filters="sRGB">
<feFlood flood-opacity="0" result="BackgroundImageFix"/>
<feColorMatrix in="SourceAlpha" type="matrix" values="0 0 0 0 0 0 0 0 0 0 0 0 0 0 0 0 0 0 127 0" result="hardAlpha"/>
<feOffset dy="30"/>
<feGaussianBlur stdDeviation="30"/>
<feColorMatrix type="matrix" values="0 0 0 0 0 0 0 0 0 0 0 0 0 0 0 0 0 0 0.15 0"/>
<feBlend mode="normal" in2="BackgroundImageFix" result="effect1_dropShadow_1_886"/>
<feBlend mode="normal" in="SourceGraphic" in2="effect1_dropShadow_1_886" result="shape"/>
</filter>
<filter id="filter1_f_1_886" x="204.982" y="132.09" width="54.0484" height="54.6947" filterUnits="userSpaceOnUse" color-interpolation-filters="sRGB">
<feFlood flood-opacity="0" result="BackgroundImageFix"/>
<feBlend mode="normal" in="SourceGraphic" in2="BackgroundImageFix" result="shape"/>
<feGaussianBlur stdDeviation="4.675" result="effect1_foregroundBlur_1_886"/>
</filter>
<filter id="filter2_f_1_886" x="192.63" y="101.842" width="52.1909" height="60.5662" filterUnits="userSpaceOnUse" color-interpolation-filters="sRGB">
<feFlood flood-opacity="0" result="BackgroundImageFix"/>
<feBlend mode="normal" in="SourceGraphic" in2="BackgroundImageFix" result="shape"/>
<feGaussianBlur stdDeviation="5.5" result="effect1_foregroundBlur_1_886"/>
</filter>
<filter id="filter3_f_1_886" x="171.072" y="75.8242" width="50.4822" height="75.4322" filterUnits="userSpaceOnUse" color-interpolation-filters="sRGB">
<feFlood flood-opacity="0" result="BackgroundImageFix"/>
<feBlend mode="normal" in="SourceGraphic" in2="BackgroundImageFix" result="shape"/>
<feGaussianBlur stdDeviation="5.5" result="effect1_foregroundBlur_1_886"/>
</filter>
<filter id="filter4_f_1_886" x="147.503" y="77.2698" width="29.6025" height="70.8432" filterUnits="userSpaceOnUse" color-interpolation-filters="sRGB">
<feFlood flood-opacity="0" result="BackgroundImageFix"/>
<feBlend mode="normal" in="SourceGraphic" in2="BackgroundImageFix" result="shape"/>
<feGaussianBlur stdDeviation="3.4375" result="effect1_foregroundBlur_1_886"/>
</filter>
<filter id="filter5_f_1_886" x="113.532" y="103.004" width="35.0186" height="66.8278" filterUnits="userSpaceOnUse" color-interpolation-filters="sRGB">
<feFlood flood-opacity="0" result="BackgroundImageFix"/>
<feBlend mode="normal" in="SourceGraphic" in2="BackgroundImageFix" result="shape"/>
<feGaussianBlur stdDeviation="4.125" result="effect1_foregroundBlur_1_886"/>
</filter>
<filter id="filter6_f_1_886" x="210.515" y="162.175" width="11.7349" height="23.5398" filterUnits="userSpaceOnUse" color-interpolation-filters="sRGB">
<feFlood flood-opacity="0" result="BackgroundImageFix"/>
<feBlend mode="normal" in="SourceGraphic" in2="BackgroundImageFix" result="shape"/>
<feGaussianBlur stdDeviation="1.375" result="effect1_foregroundBlur_1_886"/>
</filter>
<filter id="filter7_f_1_886" x="196.369" y="141.154" width="16.5793" height="21.4846" filterUnits="userSpaceOnUse" color-interpolation-filters="sRGB">
<feFlood flood-opacity="0" result="BackgroundImageFix"/>
<feBlend mode="normal" in="SourceGraphic" in2="BackgroundImageFix" result="shape"/>
<feGaussianBlur stdDeviation="1.375" result="effect1_foregroundBlur_1_886"/>
</filter>
<filter id="filter8_f_1_886" x="175.185" y="134.637" width="22.5674" height="12.2552" filterUnits="userSpaceOnUse" color-interpolation-filters="sRGB">
<feFlood flood-opacity="0" result="BackgroundImageFix"/>
<feBlend mode="normal" in="SourceGraphic" in2="BackgroundImageFix" result="shape"/>
<feGaussianBlur stdDeviation="1.375" result="effect1_foregroundBlur_1_886"/>
</filter>
<filter id="filter9_f_1_886" x="149.03" y="135.592" width="22.5674" height="12.2552" filterUnits="userSpaceOnUse" color-interpolation-filters="sRGB">
<feFlood flood-opacity="0" result="BackgroundImageFix"/>
<feBlend mode="normal" in="SourceGraphic" in2="BackgroundImageFix" result="shape"/>
<feGaussianBlur stdDeviation="1.375" result="effect1_foregroundBlur_1_886"/>
</filter>
<radialGradient id="paint0_radial_1_886" cx="0" cy="0" r="1" gradientUnits="userSpaceOnUse" gradientTransform="translate(150.388 128.758) rotate(40.7131) scale(100.77 281.667)">
<stop offset="0.852994" stop-color="#DDA492" stop-opacity="0"/>
<stop offset="1" stop-color="#DDA492"/>
</radialGradient>
<radialGradient id="paint1_radial_1_886" cx="0" cy="0" r="1" gradientUnits="userSpaceOnUse" gradientTransform="translate(140.955 176.034) rotate(68.7805) scale(23.5995 39.0972)">
<stop stop-color="#FEC8B7"/>
<stop offset="1" stop-color="#FEC8B7" stop-opacity="0"/>
</radialGradient>
<radialGradient id="paint2_radial_1_886" cx="0" cy="0" r="1" gradientUnits="userSpaceOnUse" gradientTransform="translate(212.816 75.4389) rotate(111.326) scale(170.534 114.43)">
<stop offset="0.778009" stop-color="#BA7D97" stop-opacity="0"/>
<stop offset="1" stop-color="#BA7D97"/>
</radialGradient>
<radialGradient id="paint3_radial_1_886" cx="0" cy="0" r="1" gradientUnits="userSpaceOnUse" gradientTransform="translate(212.816 75.4389) rotate(110.149) scale(159.894 107.29)">
<stop offset="0.968227" stop-color="#BF7B8A" stop-opacity="0"/>
<stop offset="1" stop-color="#BF7B8A"/>
</radialGradient>
<linearGradient id="paint4_linear_1_886" x1="225.12" y1="150.843" x2="228.952" y2="154.579" gradientUnits="userSpaceOnUse">
<stop stop-color="#DE9B80"/>
<stop offset="1" stop-color="#DE9B80" stop-opacity="0"/>
</linearGradient>
<radialGradient id="paint5_radial_1_886" cx="0" cy="0" r="1" gradientUnits="userSpaceOnUse" gradientTransform="translate(242.636 170.834) rotate(-141.741) scale(10.7679 28.2163)">
<stop stop-color="#DDA391"/>
<stop offset="1" stop-color="#DDA391" stop-opacity="0"/>
</radialGradient>
<linearGradient id="paint6_linear_1_886" x1="209.482" y1="166.733" x2="220.801" y2="165.715" gradientUnits="userSpaceOnUse">
<stop stop-color="#FCC5B2"/>
<stop offset="1" stop-color="#FCC5B2" stop-opacity="0"/>
</linearGradient>
<radialGradient id="paint7_radial_1_886" cx="0" cy="0" r="1" gradientUnits="userSpaceOnUse" gradientTransform="translate(257.627 143.867) rotate(161.82) scale(19.4546 21.9463)">
<stop stop-color="#DBAB90"/>
<stop offset="1" stop-color="#DBAB90" stop-opacity="0"/>
</radialGradient>
<linearGradient id="paint8_linear_1_886" x1="206.067" y1="126.977" x2="212.158" y2="131.053" gradientUnits="userSpaceOnUse">
<stop stop-color="#D6987D"/>
<stop offset="1" stop-color="#D6987D" stop-opacity="0"/>
</linearGradient>
<linearGradient id="paint9_linear_1_886" x1="231.155" y1="146.426" x2="219.863" y2="137.607" gradientUnits="userSpaceOnUse">
<stop stop-color="#DC977A"/>
<stop offset="1" stop-color="#DC977A" stop-opacity="0"/>
</linearGradient>
<radialGradient id="paint10_radial_1_886" cx="0" cy="0" r="1" gradientUnits="userSpaceOnUse" gradientTransform="translate(222.796 158.135) rotate(-142.147) scale(5.03157 42.8167)">
<stop stop-color="#CA8363"/>
<stop offset="1" stop-color="#CA8363" stop-opacity="0"/>
</radialGradient>
<linearGradient id="paint11_linear_1_886" x1="195.209" y1="154.206" x2="206.43" y2="139.421" gradientUnits="userSpaceOnUse">
<stop offset="0.289739" stop-color="#FCC5B2"/>
<stop offset="1" stop-color="#FCC5B2" stop-opacity="0"/>
</linearGradient>
<radialGradient id="paint12_radial_1_886" cx="0" cy="0" r="1" gradientUnits="userSpaceOnUse" gradientTransform="translate(246.26 113.196) rotate(151.238) scale(14.914 18.3296)">
<stop stop-color="#DAB7A2"/>
<stop offset="1" stop-color="#DAB7A2" stop-opacity="0"/>
</radialGradient>
<linearGradient id="paint13_linear_1_886" x1="211.609" y1="123.541" x2="201.024" y2="118.672" gradientUnits="userSpaceOnUse">
<stop stop-color="#DE9C81"/>
<stop offset="1" stop-color="#DE9C81" stop-opacity="0"/>
</linearGradient>
<linearGradient id="paint14_linear_1_886" x1="179.98" y1="120.927" x2="185.397" y2="123.052" gradientUnits="userSpaceOnUse">
<stop stop-color="#D7987E"/>
<stop offset="1" stop-color="#D7987E" stop-opacity="0"/>
</linearGradient>
<radialGradient id="paint15_radial_1_886" cx="0" cy="0" r="1" gradientUnits="userSpaceOnUse" gradientTransform="translate(178.83 126.003) rotate(19.5922) scale(4.28138 25.0933)">
<stop stop-color="#C2846B"/>
<stop offset="1" stop-color="#C2846B" stop-opacity="0"/>
</radialGradient>
<radialGradient id="paint16_radial_1_886" cx="0" cy="0" r="1" gradientUnits="userSpaceOnUse" gradientTransform="translate(207.57 144.031) rotate(-153.879) scale(10.242 45.0783)">
<stop offset="0.215675" stop-color="#D18C6E"/>
<stop offset="1" stop-color="#D18C6E" stop-opacity="0"/>
</radialGradient>
<radialGradient id="paint17_radial_1_886" cx="0" cy="0" r="1" gradientUnits="userSpaceOnUse" gradientTransform="translate(222.73 82.7868) rotate(136.247) scale(17.6792 26.6525)">
<stop stop-color="#DAAD92"/>
<stop offset="1" stop-color="#D8AA90" stop-opacity="0"/>
</radialGradient>
<linearGradient id="paint18_linear_1_886" x1="186.944" y1="147.021" x2="194.36" y2="130.901" gradientUnits="userSpaceOnUse">
<stop stop-color="#FCC5B2"/>
<stop offset="1" stop-color="#EBB197" stop-opacity="0"/>
<stop offset="1" stop-color="#FCC5B2" stop-opacity="0"/>
</linearGradient>
<linearGradient id="paint19_linear_1_886" x1="205.557" y1="70.6409" x2="186.693" y2="115.136" gradientUnits="userSpaceOnUse">
<stop stop-color="#FFE2C7"/>
<stop offset="1" stop-color="#FFE2C7" stop-opacity="0"/>
</linearGradient>
<linearGradient id="paint20_linear_1_886" x1="184.12" y1="114.08" x2="169.888" y2="110.735" gradientUnits="userSpaceOnUse">
<stop stop-color="#DF9E80"/>
<stop offset="1" stop-color="#DF9E80" stop-opacity="0"/>
</linearGradient>
<linearGradient id="paint21_linear_1_886" x1="168.367" y1="144.005" x2="172.803" y2="122.577" gradientUnits="userSpaceOnUse">
<stop stop-color="#FCC5B3"/>
<stop offset="1" stop-color="#FCC5B3" stop-opacity="0"/>
</linearGradient>
<radialGradient id="paint22_radial_1_886" cx="0" cy="0" r="1" gradientUnits="userSpaceOnUse" gradientTransform="translate(149.874 134.392) rotate(4.68179) scale(6.08892 16.7268)">
<stop offset="0.218324" stop-color="#ECB192"/>
<stop offset="1" stop-color="#ECB192" stop-opacity="0"/>
</radialGradient>
<linearGradient id="paint23_linear_1_886" x1="156.193" y1="127.918" x2="173.674" y2="56.045" gradientUnits="userSpaceOnUse">
<stop stop-color="#FFDCC3"/>
<stop offset="1" stop-color="#FFDCC3" stop-opacity="0"/>
</linearGradient>
<linearGradient id="paint24_linear_1_886" x1="124.532" y1="114.005" x2="110.754" y2="143.336" gradientUnits="userSpaceOnUse">
<stop stop-color="#FFE1C6"/>
<stop offset="1" stop-color="#FFE1C6" stop-opacity="0"/>
</linearGradient>
<radialGradient id="paint25_radial_1_886" cx="0" cy="0" r="1" gradientUnits="userSpaceOnUse" gradientTransform="translate(114.137 96.4758) rotate(62.692) scale(33.0834 9.99862)">
<stop stop-color="#FFD5BC"/>
<stop offset="1" stop-color="#FFD5BC" stop-opacity="0"/>
</radialGradient>
<radialGradient id="paint26_radial_1_886" cx="0" cy="0" r="1" gradientUnits="userSpaceOnUse" gradientTransform="translate(169.132 79.7626) rotate(-119.826) scale(10.3348 10.2196)">
<stop stop-color="#FFD5BC"/>
<stop offset="1" stop-color="#FFD5BC" stop-opacity="0"/>
</radialGradient>
<radialGradient id="paint27_radial_1_886" cx="0" cy="0" r="1" gradientUnits="userSpaceOnUse" gradientTransform="translate(204.879 85.1664) rotate(-108.394) scale(12.6436 10.9059)">
<stop stop-color="#FFD5BC"/>
<stop offset="1" stop-color="#FFD5BC" stop-opacity="0"/>
</radialGradient>
<radialGradient id="paint28_radial_1_886" cx="0" cy="0" r="1" gradientUnits="userSpaceOnUse" gradientTransform="translate(230.915 112.794) rotate(-100.486) scale(11.2009 9.15193)">
<stop stop-color="#FFD5BC"/>
<stop offset="1" stop-color="#FFD5BC" stop-opacity="0"/>
</radialGradient>
<radialGradient id="paint29_radial_1_886" cx="0" cy="0" r="1" gradientUnits="userSpaceOnUse" gradientTransform="translate(242.999 142.563) rotate(-88.9797) scale(7.71939 8.39471)">
<stop stop-color="#FFD5BC"/>
<stop offset="1" stop-color="#FFD5BC" stop-opacity="0"/>
</radialGradient>
<linearGradient id="paint30_linear_1_886" x1="212.497" y1="170.786" x2="218.571" y2="179.463" gradientUnits="userSpaceOnUse">
<stop stop-color="#FFD5BF"/>
<stop offset="1" stop-color="#FFD5BF" stop-opacity="0"/>
</linearGradient>
<linearGradient id="paint31_linear_1_886" x1="199.828" y1="150.299" x2="208.512" y2="156.364" gradientUnits="userSpaceOnUse">
<stop stop-color="#FFD5BF"/>
<stop offset="1" stop-color="#FFD5BF" stop-opacity="0"/>
</linearGradient>
<linearGradient id="paint32_linear_1_886" x1="181.61" y1="142.394" x2="192.147" y2="142.44" gradientUnits="userSpaceOnUse">
<stop stop-color="#FFD5BF"/>
<stop offset="1" stop-color="#FFD5BF" stop-opacity="0"/>
</linearGradient>
<linearGradient id="paint33_linear_1_886" x1="155.455" y1="143.349" x2="165.992" y2="143.395" gradientUnits="userSpaceOnUse">
<stop stop-color="#FFD5BF"/>
<stop offset="1" stop-color="#FFD5BF" stop-opacity="0"/>
</linearGradient>
<clipPath id="clip0_1_886">
<rect width="176" height="176" fill="white" transform="matrix(-0.866025 -0.5 -0.5 0.866025 301 118)"/>
</clipPath>
</defs>
</svg>
