<svg width="361" height="320" viewBox="0 0 361 320" fill="none" xmlns="http://www.w3.org/2000/svg">
<g filter="url(#filter0_d_1_903)">
<g clip-path="url(#clip0_1_903)">
<g filter="url(#filter1_i_1_903)">
<path d="M226.401 107.94C231.856 102.08 231.448 92.7039 225.589 87.2489C219.729 81.7939 210.522 81.9874 205.067 87.8474L178.559 116.955L193.057 90.9547C196.956 83.9624 194.448 75.1333 187.456 71.2342C180.464 67.3353 171.634 69.8429 167.736 76.8353L147.72 112.73C146.254 115.359 144.436 117.775 142.315 119.911L134.746 127.534C130.106 131.759 119.222 143.1 116.453 154.51C112.079 168.813 116.54 184.85 122.557 195.055C128.574 205.26 136.998 213.425 152.592 219.709C173.481 226.463 191.553 219.487 205.044 204.752C215.761 193.543 225.496 180.775 229.353 175.857L194.277 142.163L226.401 107.94Z" fill="#EDB6A9"/>
<path d="M226.401 107.94C231.856 102.08 231.448 92.7039 225.589 87.2489C219.729 81.7939 210.522 81.9874 205.067 87.8474L178.559 116.955L193.057 90.9547C196.956 83.9624 194.448 75.1333 187.456 71.2342C180.464 67.3353 171.634 69.8429 167.736 76.8353L147.72 112.73C146.254 115.359 144.436 117.775 142.315 119.911L134.746 127.534C130.106 131.759 119.222 143.1 116.453 154.51C112.079 168.813 116.54 184.85 122.557 195.055C128.574 205.26 136.998 213.425 152.592 219.709C173.481 226.463 191.553 219.487 205.044 204.752C215.761 193.543 225.496 180.775 229.353 175.857L194.277 142.163L226.401 107.94Z" fill="url(#paint0_radial_1_903)"/>
</g>
<g filter="url(#filter2_f_1_903)">
<rect width="38.7627" height="33.6715" rx="16.5" transform="matrix(-0.782677 -0.622429 -0.622429 0.782677 231.234 163.413)" fill="#A86257"/>
</g>
<g filter="url(#filter3_f_1_903)">
<path d="M124.578 148.28C125.08 147.508 125.6 146.751 126.13 146.014C139.768 129.987 157.505 135.117 162.686 138.107L171.399 143.138C178.058 147.015 180.373 155.479 176.568 162.069C173.813 166.841 168.602 169.325 163.398 168.879L163.39 168.905C162.887 168.882 162.111 168.76 161.125 168.494C160.732 168.394 160.342 168.276 159.955 168.14C158.477 167.647 156.681 166.88 154.704 165.739C154.562 165.657 154.422 165.576 154.285 165.497L154.314 165.448L124.578 148.28Z" fill="#A86257"/>
</g>
<rect width="28.4988" height="40.9034" rx="14.2494" transform="matrix(-0.782677 -0.622429 -0.622429 0.782677 242.793 158.991)" fill="#EAB89A"/>
<rect width="28.4988" height="40.9034" rx="14.2494" transform="matrix(-0.782677 -0.622429 -0.622429 0.782677 242.793 158.991)" fill="url(#paint1_linear_1_903)"/>
<rect width="28.4988" height="40.9034" rx="14.2494" transform="matrix(-0.782677 -0.622429 -0.622429 0.782677 242.793 158.991)" fill="url(#paint2_linear_1_903)"/>
<rect width="28.4988" height="40.9034" rx="14.2494" transform="matrix(-0.782677 -0.622429 -0.622429 0.782677 242.793 158.991)" fill="url(#paint3_radial_1_903)"/>
<rect width="28.4988" height="40.9034" rx="14.2494" transform="matrix(-0.782677 -0.622429 -0.622429 0.782677 242.793 158.991)" fill="url(#paint4_radial_1_903)"/>
<path d="M226.401 107.94C231.856 102.08 231.448 92.7039 225.589 87.2489C219.729 81.7939 210.522 81.9875 205.067 87.8474L175.609 119.956C170.154 125.816 177.312 130.068 181.812 134.651C186.311 139.233 193.391 143.662 198.846 137.802L226.401 107.94Z" fill="url(#paint5_linear_1_903)"/>
<path d="M226.401 107.94C231.856 102.08 231.448 92.7039 225.589 87.2489C219.729 81.7939 210.522 81.9875 205.067 87.8474L175.609 119.956C170.154 125.816 177.312 130.068 181.812 134.651C186.311 139.233 193.391 143.662 198.846 137.802L226.401 107.94Z" fill="url(#paint6_linear_1_903)"/>
<path d="M226.401 107.94C231.856 102.08 231.448 92.7039 225.589 87.2489C219.729 81.7939 210.522 81.9875 205.067 87.8474L175.609 119.956C170.154 125.816 177.312 130.068 181.812 134.651C186.311 139.233 193.391 143.662 198.846 137.802L226.401 107.94Z" fill="url(#paint7_linear_1_903)"/>
<path d="M226.401 107.94C231.856 102.08 231.448 92.7039 225.589 87.2489C219.729 81.7939 210.522 81.9875 205.067 87.8474L175.609 119.956C170.154 125.816 177.312 130.068 181.812 134.651C186.311 139.233 193.391 143.662 198.846 137.802L226.401 107.94Z" fill="url(#paint8_linear_1_903)"/>
<path d="M226.401 107.94C231.856 102.08 231.448 92.7039 225.589 87.2489C219.729 81.7939 210.522 81.9875 205.067 87.8474L175.609 119.956C170.154 125.816 177.312 130.068 181.812 134.651C186.311 139.233 193.391 143.662 198.846 137.802L226.401 107.94Z" fill="url(#paint9_radial_1_903)"/>
<path d="M193.288 91.0887C197.187 84.0964 194.68 75.2672 187.687 71.3682C180.695 67.4692 171.634 69.841 167.735 76.8333L152.289 104.532C148.39 111.524 152.597 116.136 159.59 120.035C166.582 123.934 173.498 125.606 177.397 118.614L193.288 91.0887Z" fill="url(#paint10_linear_1_903)"/>
<path d="M193.288 91.0887C197.187 84.0964 194.68 75.2672 187.687 71.3682C180.695 67.4692 171.634 69.841 167.735 76.8333L152.289 104.532C148.39 111.524 152.597 116.136 159.59 120.035C166.582 123.934 173.498 125.606 177.397 118.614L193.288 91.0887Z" fill="url(#paint11_linear_1_903)"/>
<path d="M193.288 91.0887C197.187 84.0964 194.68 75.2672 187.687 71.3682C180.695 67.4692 171.634 69.841 167.735 76.8333L152.289 104.532C148.39 111.524 152.597 116.136 159.59 120.035C166.582 123.934 173.498 125.606 177.397 118.614L193.288 91.0887Z" fill="url(#paint12_radial_1_903)"/>
<path d="M226.401 107.94C231.856 102.08 231.448 92.7039 225.589 87.2489C219.729 81.7939 210.522 81.9874 205.067 87.8474L178.559 116.955L193.057 90.9547C196.956 83.9624 194.448 75.1333 187.456 71.2342C180.464 67.3353 171.634 69.8429 167.736 76.8353L147.72 112.73C146.254 115.359 144.436 117.775 142.315 119.911L134.746 127.534C130.106 131.759 119.222 143.1 116.453 154.51C112.079 168.813 116.54 184.85 122.557 195.055C128.574 205.26 136.998 213.425 152.592 219.709C173.481 226.463 191.553 219.487 205.044 204.752C215.761 193.543 225.496 180.775 229.353 175.857L194.277 142.163L226.401 107.94Z" fill="url(#paint13_radial_1_903)"/>
<g filter="url(#filter4_f_1_903)">
<rect width="4.80673" height="29.1661" rx="2.40336" transform="matrix(-0.786519 -0.617566 -0.617566 0.786519 223.382 151.152)" fill="#D99F7E"/>
</g>
<rect width="29.2005" height="47.8132" rx="14.2494" transform="matrix(-0.782677 -0.622429 -0.622429 0.782677 228.727 140.907)" fill="#F7C2AA"/>
<rect width="29.2005" height="47.8132" rx="14.2494" transform="matrix(-0.782677 -0.622429 -0.622429 0.782677 228.727 140.907)" fill="url(#paint14_linear_1_903)"/>
<rect width="29.2005" height="47.8132" rx="14.2494" transform="matrix(-0.782677 -0.622429 -0.622429 0.782677 228.727 140.907)" fill="url(#paint15_linear_1_903)"/>
<rect width="29.2005" height="47.8132" rx="14.2494" transform="matrix(-0.782677 -0.622429 -0.622429 0.782677 228.727 140.907)" fill="url(#paint16_radial_1_903)"/>
<rect width="29.2005" height="47.8132" rx="14.2494" transform="matrix(-0.782677 -0.622429 -0.622429 0.782677 228.727 140.907)" fill="url(#paint17_radial_1_903)"/>
<g opacity="0.5" filter="url(#filter5_f_1_903)">
<rect width="5.60478" height="20.0928" rx="2.80239" transform="matrix(-0.784448 -0.620194 -0.620194 0.784448 224.579 157.534)" fill="url(#paint18_linear_1_903)"/>
</g>
<g opacity="0.5" filter="url(#filter6_f_1_903)">
<rect width="12.4935" height="33.6317" rx="6.24676" transform="matrix(-0.784448 -0.620194 -0.620194 0.784448 214.575 137.037)" fill="url(#paint19_linear_1_903)"/>
</g>
<g filter="url(#filter7_f_1_903)">
<path d="M212.804 93.9261L184.757 123.695" stroke="#FFD9BD" stroke-width="8.25" stroke-linecap="square"/>
</g>
<g filter="url(#filter8_f_1_903)">
<path d="M177.94 78.0635L157.331 116.781" stroke="#FFD9BD" stroke-width="8.25" stroke-linecap="square"/>
</g>
<path d="M123.653 140.012C120.493 144.424 117.678 149.461 116.453 154.511C113.637 163.717 114.482 173.642 117.047 182.268L130.589 175.274C136.188 163.959 140.857 159.251 143.861 158.222C147.249 157.061 148.463 157.762 153.56 160.705C155.63 161.9 157.513 162.7 159.063 163.212C159.468 163.353 159.878 163.476 160.289 163.579C161.324 163.855 162.139 163.979 162.667 164L162.676 163.973C168.142 164.413 173.632 161.754 176.556 156.689C180.595 149.695 178.213 140.756 171.24 136.695L162.114 131.427C156.689 128.294 138.082 122.975 123.653 140.012Z" fill="#EDB6A9"/>
<path d="M123.653 140.012C120.493 144.424 117.678 149.461 116.453 154.511C113.637 163.717 114.482 173.642 117.047 182.268L130.589 175.274C136.188 163.959 140.857 159.251 143.861 158.222C147.249 157.061 148.463 157.762 153.56 160.705C155.63 161.9 157.513 162.7 159.063 163.212C159.468 163.353 159.878 163.476 160.289 163.579C161.324 163.855 162.139 163.979 162.667 164L162.676 163.973C168.142 164.413 173.632 161.754 176.556 156.689C180.595 149.695 178.213 140.756 171.24 136.695L162.114 131.427C156.689 128.294 138.082 122.975 123.653 140.012Z" fill="url(#paint20_radial_1_903)"/>
<path d="M123.653 140.012C120.493 144.424 117.678 149.461 116.453 154.511C113.637 163.717 114.482 173.642 117.047 182.268L130.589 175.274C136.188 163.959 140.857 159.251 143.861 158.222C147.249 157.061 148.463 157.762 153.56 160.705C155.63 161.9 157.513 162.7 159.063 163.212C159.468 163.353 159.878 163.476 160.289 163.579C161.324 163.855 162.139 163.979 162.667 164L162.676 163.973C168.142 164.413 173.632 161.754 176.556 156.689C180.595 149.695 178.213 140.756 171.24 136.695L162.114 131.427C156.689 128.294 138.082 122.975 123.653 140.012Z" fill="url(#paint21_radial_1_903)"/>
<path d="M123.653 140.012C120.493 144.424 117.678 149.461 116.453 154.511C113.637 163.717 114.482 173.642 117.047 182.268L130.589 175.274C136.188 163.959 140.857 159.251 143.861 158.222C147.249 157.061 148.463 157.762 153.56 160.705C155.63 161.9 157.513 162.7 159.063 163.212C159.468 163.353 159.878 163.476 160.289 163.579C161.324 163.855 162.139 163.979 162.667 164L162.676 163.973C168.142 164.413 173.632 161.754 176.556 156.689C180.595 149.695 178.213 140.756 171.24 136.695L162.114 131.427C156.689 128.294 138.082 122.975 123.653 140.012Z" fill="url(#paint22_radial_1_903)"/>
<g filter="url(#filter9_f_1_903)">
<path d="M164.331 145.297L154.055 139.363C148.37 136.081 141.415 134.613 135.955 138.258C132.627 140.479 129.036 143.857 126.091 148.96" stroke="url(#paint23_linear_1_903)" stroke-width="11" stroke-linecap="round"/>
</g>
<path fill-rule="evenodd" clip-rule="evenodd" d="M225.588 87.249C231.448 92.704 231.856 102.08 226.401 107.94L194.277 142.163L208.725 156.043L203.898 162.114C198.999 168.273 200.022 177.237 206.181 182.135C212.34 187.034 221.305 186.011 226.203 179.852L227.9 177.717C223.378 183.52 214.601 194.756 205.044 204.752C191.553 219.487 173.481 226.463 152.592 219.709C136.998 213.425 128.574 205.26 122.557 195.055C116.54 184.85 112.079 168.813 116.453 154.511C119.222 143.1 130.106 131.759 134.746 127.534L142.315 119.911C144.436 117.775 146.254 115.359 147.72 112.731L167.735 76.8354C171.634 69.843 180.464 67.3353 187.456 71.2343C194.448 75.1334 196.956 83.9625 193.057 90.9548L178.559 116.955L205.067 87.8475C210.522 81.9875 219.729 81.794 225.588 87.249Z" fill="url(#paint24_radial_1_903)"/>
<path fill-rule="evenodd" clip-rule="evenodd" d="M225.588 87.249C231.448 92.704 231.856 102.08 226.401 107.94L194.277 142.163L208.725 156.043L203.898 162.114C198.999 168.273 200.022 177.237 206.181 182.135C212.34 187.034 221.305 186.011 226.203 179.852L227.9 177.717C223.378 183.52 214.601 194.756 205.044 204.752C191.553 219.487 173.481 226.463 152.592 219.709C136.998 213.425 128.574 205.26 122.557 195.055C116.54 184.85 112.079 168.813 116.453 154.511C119.222 143.1 130.106 131.759 134.746 127.534L142.315 119.911C144.436 117.775 146.254 115.359 147.72 112.731L167.735 76.8354C171.634 69.843 180.464 67.3353 187.456 71.2343C194.448 75.1334 196.956 83.9625 193.057 90.9548L178.559 116.955L205.067 87.8475C210.522 81.9875 219.729 81.794 225.588 87.249Z" fill="url(#paint25_radial_1_903)"/>
<path fill-rule="evenodd" clip-rule="evenodd" d="M225.588 87.249C231.448 92.704 231.856 102.08 226.401 107.94L194.277 142.163L208.725 156.043L203.898 162.114C198.999 168.273 200.022 177.237 206.181 182.135C212.34 187.034 221.305 186.011 226.203 179.852L227.9 177.717C223.378 183.52 214.601 194.756 205.044 204.752C191.553 219.487 173.481 226.463 152.592 219.709C136.998 213.425 128.574 205.26 122.557 195.055C116.54 184.85 112.079 168.813 116.453 154.511C119.222 143.1 130.106 131.759 134.746 127.534L142.315 119.911C144.436 117.775 146.254 115.359 147.72 112.731L167.735 76.8354C171.634 69.843 180.464 67.3353 187.456 71.2343C194.448 75.1334 196.956 83.9625 193.057 90.9548L178.559 116.955L205.067 87.8475C210.522 81.9875 219.729 81.794 225.588 87.249Z" fill="url(#paint26_radial_1_903)"/>
</g>
</g>
<defs>
<filter id="filter0_d_1_903" x="-9" y="-10" width="380" height="380" filterUnits="userSpaceOnUse" color-interpolation-filters="sRGB">
<feFlood flood-opacity="0" result="BackgroundImageFix"/>
<feColorMatrix in="SourceAlpha" type="matrix" values="0 0 0 0 0 0 0 0 0 0 0 0 0 0 0 0 0 0 127 0" result="hardAlpha"/>
<feOffset dy="30"/>
<feGaussianBlur stdDeviation="30"/>
<feColorMatrix type="matrix" values="0 0 0 0 0 0 0 0 0 0 0 0 0 0 0 0 0 0 0.15 0"/>
<feBlend mode="normal" in2="BackgroundImageFix" result="effect1_dropShadow_1_903"/>
<feBlend mode="normal" in="SourceGraphic" in2="effect1_dropShadow_1_903" result="shape"/>
</filter>
<filter id="filter1_i_1_903" x="114.697" y="65.2714" width="118.303" height="157.026" filterUnits="userSpaceOnUse" color-interpolation-filters="sRGB">
<feFlood flood-opacity="0" result="BackgroundImageFix"/>
<feBlend mode="normal" in="SourceGraphic" in2="BackgroundImageFix" result="shape"/>
<feColorMatrix in="SourceAlpha" type="matrix" values="0 0 0 0 0 0 0 0 0 0 0 0 0 0 0 0 0 0 127 0" result="hardAlpha"/>
<feOffset dx="2.75" dy="-4.125"/>
<feGaussianBlur stdDeviation="4.125"/>
<feComposite in2="hardAlpha" operator="arithmetic" k2="-1" k3="1"/>
<feColorMatrix type="matrix" values="0 0 0 0 0.737255 0 0 0 0 0.494118 0 0 0 0 0.588235 0 0 0 1 0"/>
<feBlend mode="normal" in2="shape" result="effect1_innerShadow_1_903"/>
</filter>
<filter id="filter2_f_1_903" x="175.62" y="134.969" width="59.9297" height="59.1138" filterUnits="userSpaceOnUse" color-interpolation-filters="sRGB">
<feFlood flood-opacity="0" result="BackgroundImageFix"/>
<feBlend mode="normal" in="SourceGraphic" in2="BackgroundImageFix" result="shape"/>
<feGaussianBlur stdDeviation="5.5" result="effect1_foregroundBlur_1_903"/>
</filter>
<filter id="filter3_f_1_903" x="113.578" y="123.89" width="75.8213" height="56.0408" filterUnits="userSpaceOnUse" color-interpolation-filters="sRGB">
<feFlood flood-opacity="0" result="BackgroundImageFix"/>
<feBlend mode="normal" in="SourceGraphic" in2="BackgroundImageFix" result="shape"/>
<feGaussianBlur stdDeviation="5.5" result="effect1_foregroundBlur_1_903"/>
</filter>
<filter id="filter4_f_1_903" x="197.06" y="143.654" width="30.8506" height="34.9661" filterUnits="userSpaceOnUse" color-interpolation-filters="sRGB">
<feFlood flood-opacity="0" result="BackgroundImageFix"/>
<feBlend mode="normal" in="SourceGraphic" in2="BackgroundImageFix" result="shape"/>
<feGaussianBlur stdDeviation="2.75" result="effect1_foregroundBlur_1_903"/>
</filter>
<filter id="filter5_f_1_903" x="204.73" y="151.067" width="22.8406" height="25.2202" filterUnits="userSpaceOnUse" color-interpolation-filters="sRGB">
<feFlood flood-opacity="0" result="BackgroundImageFix"/>
<feBlend mode="normal" in="SourceGraphic" in2="BackgroundImageFix" result="shape"/>
<feGaussianBlur stdDeviation="2.0625" result="effect1_foregroundBlur_1_903"/>
</filter>
<filter id="filter6_f_1_903" x="180.944" y="126.316" width="36.604" height="40.0758" filterUnits="userSpaceOnUse" color-interpolation-filters="sRGB">
<feFlood flood-opacity="0" result="BackgroundImageFix"/>
<feBlend mode="normal" in="SourceGraphic" in2="BackgroundImageFix" result="shape"/>
<feGaussianBlur stdDeviation="2.75" result="effect1_foregroundBlur_1_903"/>
</filter>
<filter id="filter7_f_1_903" x="170.676" y="79.8451" width="56.2092" height="57.9308" filterUnits="userSpaceOnUse" color-interpolation-filters="sRGB">
<feFlood flood-opacity="0" result="BackgroundImageFix"/>
<feBlend mode="normal" in="SourceGraphic" in2="BackgroundImageFix" result="shape"/>
<feGaussianBlur stdDeviation="4.125" result="effect1_foregroundBlur_1_903"/>
</filter>
<filter id="filter8_f_1_903" x="143.502" y="64.234" width="48.2673" height="66.3769" filterUnits="userSpaceOnUse" color-interpolation-filters="sRGB">
<feFlood flood-opacity="0" result="BackgroundImageFix"/>
<feBlend mode="normal" in="SourceGraphic" in2="BackgroundImageFix" result="shape"/>
<feGaussianBlur stdDeviation="4.125" result="effect1_foregroundBlur_1_903"/>
</filter>
<filter id="filter9_f_1_903" x="109.59" y="119.619" width="71.2427" height="45.842" filterUnits="userSpaceOnUse" color-interpolation-filters="sRGB">
<feFlood flood-opacity="0" result="BackgroundImageFix"/>
<feBlend mode="normal" in="SourceGraphic" in2="BackgroundImageFix" result="shape"/>
<feGaussianBlur stdDeviation="5.5" result="effect1_foregroundBlur_1_903"/>
</filter>
<radialGradient id="paint0_radial_1_903" cx="0" cy="0" r="1" gradientUnits="userSpaceOnUse" gradientTransform="translate(146.318 155.66) rotate(70.6013) scale(27.7066 24.8363)">
<stop stop-color="#EEB9B1"/>
<stop offset="1" stop-color="#EEB9B1" stop-opacity="0"/>
</radialGradient>
<linearGradient id="paint1_linear_1_903" x1="1.43651" y1="24.3406" x2="13.7443" y2="23.8339" gradientUnits="userSpaceOnUse">
<stop stop-color="#E6B194"/>
<stop offset="1" stop-color="#E6B194" stop-opacity="0"/>
</linearGradient>
<linearGradient id="paint2_linear_1_903" x1="0.617524" y1="24.2728" x2="4.43151" y2="24.1165" gradientUnits="userSpaceOnUse">
<stop stop-color="#ECB19B"/>
<stop offset="1" stop-color="#ECB19B" stop-opacity="0"/>
</linearGradient>
<radialGradient id="paint3_radial_1_903" cx="0" cy="0" r="1" gradientUnits="userSpaceOnUse" gradientTransform="translate(11.1499 41.2067) rotate(-81.5063) scale(15.7106 21.2499)">
<stop stop-color="#C6888D"/>
<stop offset="1" stop-color="#C6888D" stop-opacity="0"/>
</radialGradient>
<radialGradient id="paint4_radial_1_903" cx="0" cy="0" r="1" gradientUnits="userSpaceOnUse" gradientTransform="translate(24.0945 -1.83038) rotate(112.53) scale(18.4251 21.8055)">
<stop stop-color="#D29D7F"/>
<stop offset="1" stop-color="#D29D7F" stop-opacity="0"/>
</radialGradient>
<linearGradient id="paint5_linear_1_903" x1="213.616" y1="120.99" x2="201.548" y2="109.321" gradientUnits="userSpaceOnUse">
<stop stop-color="#F0A985"/>
<stop offset="1" stop-color="#F0A985" stop-opacity="0"/>
</linearGradient>
<linearGradient id="paint6_linear_1_903" x1="215.645" y1="122.231" x2="211.207" y2="118.733" gradientUnits="userSpaceOnUse">
<stop stop-color="#F5B190"/>
<stop offset="1" stop-color="#F5B190" stop-opacity="0"/>
</linearGradient>
<linearGradient id="paint7_linear_1_903" x1="182.616" y1="109.921" x2="187.587" y2="114.932" gradientUnits="userSpaceOnUse">
<stop stop-color="#DC9B7F"/>
<stop offset="1" stop-color="#DC9B7F" stop-opacity="0"/>
</linearGradient>
<linearGradient id="paint8_linear_1_903" x1="178.431" y1="142.225" x2="191.715" y2="124.888" gradientUnits="userSpaceOnUse">
<stop offset="0.306897" stop-color="#EDB6A9"/>
<stop offset="1" stop-color="#EDB6A9" stop-opacity="0"/>
</linearGradient>
<radialGradient id="paint9_radial_1_903" cx="0" cy="0" r="1" gradientUnits="userSpaceOnUse" gradientTransform="translate(220.036 83.6077) rotate(114.832) scale(15.2633 17.1555)">
<stop stop-color="#E8BEA3"/>
<stop offset="1" stop-color="#E8BEA3" stop-opacity="0"/>
</radialGradient>
<linearGradient id="paint10_linear_1_903" x1="191.311" y1="103.319" x2="175.935" y2="95.5319" gradientUnits="userSpaceOnUse">
<stop stop-color="#D99676"/>
<stop offset="1" stop-color="#C58560" stop-opacity="0"/>
<stop offset="1" stop-color="#D99676" stop-opacity="0"/>
</linearGradient>
<linearGradient id="paint11_linear_1_903" x1="163.229" y1="116.851" x2="166.874" y2="109.462" gradientUnits="userSpaceOnUse">
<stop stop-color="#EDB6A9"/>
<stop offset="1" stop-color="#EDB6A9" stop-opacity="0"/>
</linearGradient>
<radialGradient id="paint12_radial_1_903" cx="0" cy="0" r="1" gradientUnits="userSpaceOnUse" gradientTransform="translate(178.645 66.1459) rotate(98.3669) scale(21.3506 18.5276)">
<stop stop-color="#FFD6B9"/>
<stop offset="1" stop-color="#FFD6B9" stop-opacity="0"/>
</radialGradient>
<radialGradient id="paint13_radial_1_903" cx="0" cy="0" r="1" gradientUnits="userSpaceOnUse" gradientTransform="translate(138.331 127.345) rotate(17.5513) scale(61.1361 48.3173)">
<stop stop-color="#FFE7C7"/>
<stop offset="1" stop-color="#FFE7C7" stop-opacity="0"/>
</radialGradient>
<linearGradient id="paint14_linear_1_903" x1="1.47189" y1="28.4524" x2="11.9438" y2="28.24" gradientUnits="userSpaceOnUse">
<stop stop-color="#D3977C"/>
<stop offset="1" stop-color="#D3977C" stop-opacity="0"/>
</linearGradient>
<linearGradient id="paint15_linear_1_903" x1="33.0566" y1="29.4293" x2="16.3509" y2="28.8012" gradientUnits="userSpaceOnUse">
<stop stop-color="#FFDABA"/>
<stop offset="1" stop-color="#FFDABA" stop-opacity="0"/>
</linearGradient>
<radialGradient id="paint16_radial_1_903" cx="0" cy="0" r="1" gradientUnits="userSpaceOnUse" gradientTransform="translate(11.4244 48.1678) rotate(-82.5422) scale(18.3181 21.8284)">
<stop stop-color="#C6888D"/>
<stop offset="1" stop-color="#C6888D" stop-opacity="0"/>
</radialGradient>
<radialGradient id="paint17_radial_1_903" cx="0" cy="0" r="1" gradientUnits="userSpaceOnUse" gradientTransform="translate(10.4351 -2.80236) rotate(69.3043) scale(16.5356 17.7574)">
<stop stop-color="#DAAD94"/>
<stop offset="1" stop-color="#DAAD94" stop-opacity="0"/>
</radialGradient>
<linearGradient id="paint18_linear_1_903" x1="3.92563" y1="16.3967" x2="4.05626" y2="-4.69482" gradientUnits="userSpaceOnUse">
<stop stop-color="#F0C0B2"/>
<stop offset="1" stop-color="#F0C0B2" stop-opacity="0"/>
</linearGradient>
<linearGradient id="paint19_linear_1_903" x1="8.75477" y1="24.8929" x2="8.24599" y2="-16.2701" gradientUnits="userSpaceOnUse">
<stop stop-color="#FFE5CB"/>
<stop offset="1" stop-color="#FFE5CB" stop-opacity="0"/>
</linearGradient>
<radialGradient id="paint20_radial_1_903" cx="0" cy="0" r="1" gradientUnits="userSpaceOnUse" gradientTransform="translate(142.858 181.15) rotate(-79.352) scale(55.8448 74.7086)">
<stop offset="0.681941" stop-color="#FAC4A3" stop-opacity="0"/>
<stop offset="1" stop-color="#FAC4A3"/>
</radialGradient>
<radialGradient id="paint21_radial_1_903" cx="0" cy="0" r="1" gradientUnits="userSpaceOnUse" gradientTransform="translate(186.186 145.324) rotate(179.644) scale(19.5283 30.9262)">
<stop stop-color="#EBA987"/>
<stop offset="1" stop-color="#EBA987" stop-opacity="0"/>
</radialGradient>
<radialGradient id="paint22_radial_1_903" cx="0" cy="0" r="1" gradientUnits="userSpaceOnUse" gradientTransform="translate(149.212 159.822) rotate(113.417) scale(16.4453 33.5797)">
<stop stop-color="#C58285"/>
<stop offset="1" stop-color="#C58285" stop-opacity="0"/>
</radialGradient>
<linearGradient id="paint23_linear_1_903" x1="162.477" y1="144.226" x2="124.983" y2="143.278" gradientUnits="userSpaceOnUse">
<stop stop-color="#FFDEC6"/>
<stop offset="1" stop-color="#FFDEC6" stop-opacity="0"/>
</linearGradient>
<radialGradient id="paint24_radial_1_903" cx="0" cy="0" r="1" gradientUnits="userSpaceOnUse" gradientTransform="translate(186.203 178.268) rotate(-161.85) scale(78.6788 141.366)">
<stop offset="0.670948" stop-color="#F1BCB0" stop-opacity="0"/>
<stop offset="1" stop-color="#F1BCB0"/>
</radialGradient>
<radialGradient id="paint25_radial_1_903" cx="0" cy="0" r="1" gradientUnits="userSpaceOnUse" gradientTransform="translate(205.905 161.198) rotate(170.403) scale(91.116 113.255)">
<stop offset="0.901698" stop-color="#E0A494" stop-opacity="0"/>
<stop offset="1" stop-color="#E0A494"/>
</radialGradient>
<radialGradient id="paint26_radial_1_903" cx="0" cy="0" r="1" gradientUnits="userSpaceOnUse" gradientTransform="translate(152.558 145.913) rotate(47.4372) scale(77.593 103.431)">
<stop offset="0.911282" stop-color="#E9AC9A" stop-opacity="0"/>
<stop offset="1" stop-color="#E9AC9A"/>
</radialGradient>
<clipPath id="clip0_1_903">
<rect width="176" height="176" fill="white" transform="matrix(-0.866025 -0.5 -0.5 0.866025 301 118)"/>
</clipPath>
</defs>
</svg>
