<svg width="241" height="241" viewBox="0 0 241 241" fill="none" xmlns="http://www.w3.org/2000/svg">
<g clip-path="url(#clip0_1_874)">
<g filter="url(#filter0_i_1_874)">
<path d="M83.4323 60.5209L190.114 122.113L166.501 163.011C150.425 190.856 114.819 200.397 86.9731 184.32L81.1297 180.947C71.6907 175.497 64.355 167.803 59.4075 158.928L59.3433 158.998C51.9792 146.249 47.406 128.144 52.0826 111.796C56.8556 95.1107 65.9396 86.4306 69.9791 83.8225L83.4323 60.5209Z" fill="url(#paint0_linear_1_874)"/>
</g>
<path d="M83.4323 60.5209L190.114 122.113L166.501 163.011C150.425 190.856 114.819 200.397 86.9731 184.32L81.1297 180.947C71.6907 175.497 64.355 167.803 59.4075 158.928L59.3433 158.998C51.9792 146.249 47.406 128.144 52.0826 111.796C56.8556 95.1107 65.9396 86.4306 69.9791 83.8225L83.4323 60.5209Z" fill="url(#paint1_radial_1_874)"/>
<path d="M83.4323 60.5209L190.114 122.113L166.501 163.011C150.425 190.856 114.819 200.397 86.9731 184.32L81.1297 180.947C71.6907 175.497 64.355 167.803 59.4075 158.928L59.3433 158.998C51.9792 146.249 47.406 128.144 52.0826 111.796C56.8556 95.1107 65.9396 86.4306 69.9791 83.8225L83.4323 60.5209Z" fill="url(#paint2_radial_1_874)"/>
<g filter="url(#filter1_f_1_874)">
<rect width="64.1806" height="31.3598" rx="15.6799" transform="matrix(-0.866025 -0.5 -0.5 0.866025 151.677 119.937)" fill="url(#paint3_linear_1_874)"/>
</g>
<g filter="url(#filter2_f_1_874)">
<path d="M127.384 113.983C127.399 119.062 129.892 124.033 134.488 126.687C138.564 129.04 142.984 129.755 146.997 128.14C147.77 132.15 150.214 135.815 154.029 138.018C161.006 142.046 169.928 139.656 173.956 132.678L180.801 120.823C184.83 113.845 182.439 104.923 175.462 100.895C172.617 99.2527 169.45 98.6772 166.423 99.0443C167.893 92.6214 164.595 87.4091 159.023 84.1916C154.919 81.8222 150.142 81.6735 146.084 83.3727C148.166 77.1389 145.317 70.4498 139.28 66.9644C133.876 63.8441 127.287 64.6324 122.788 68.4523C123.602 62.7294 120.949 56.8251 115.636 53.7579C108.659 49.7295 99.7366 52.1201 95.7083 59.0975L84.7351 78.1036C80.7067 85.0809 83.0973 94.0028 90.0747 98.0312C94.9529 100.848 100.782 100.526 105.224 97.6938C102.969 104.093 105.513 111.39 111.602 114.906C116.728 117.866 122.92 117.308 127.384 113.983Z" fill="#9C5A53"/>
</g>
<rect width="34.3748" height="50.5038" rx="17.1874" transform="matrix(-0.866025 -0.5 -0.5 0.866025 201.102 103.082)" fill="url(#paint4_radial_1_874)"/>
<rect width="34.3748" height="50.5038" rx="17.1874" transform="matrix(-0.866025 -0.5 -0.5 0.866025 201.102 103.082)" fill="url(#paint5_radial_1_874)"/>
<rect width="34.3748" height="50.5038" rx="17.1874" transform="matrix(-0.866025 -0.5 -0.5 0.866025 201.102 103.082)" fill="url(#paint6_radial_1_874)"/>
<rect width="34.3748" height="50.5038" rx="17.1874" transform="matrix(-0.866025 -0.5 -0.5 0.866025 201.102 103.082)" fill="url(#paint7_radial_1_874)"/>
<path d="M173.115 98.3307C179.062 88.0292 175.044 79.5984 166.824 74.8522C158.603 70.106 148.091 72.9226 143.345 81.1432L131.933 100.91C127.187 109.131 129.697 120.173 137.917 124.919C146.138 129.665 155.549 128.755 161.702 118.097L173.115 98.3307Z" fill="url(#paint8_radial_1_874)"/>
<path d="M173.115 98.3307C179.062 88.0292 175.044 79.5984 166.824 74.8522C158.603 70.106 148.091 72.9226 143.345 81.1432L131.933 100.91C127.187 109.131 129.697 120.173 137.917 124.919C146.138 129.665 155.549 128.755 161.702 118.097L173.115 98.3307Z" fill="url(#paint9_radial_1_874)"/>
<path d="M173.115 98.3307C179.062 88.0292 175.044 79.5984 166.824 74.8522C158.603 70.106 148.091 72.9226 143.345 81.1432L131.933 100.91C127.187 109.131 129.697 120.173 137.917 124.919C146.138 129.665 155.549 128.755 161.702 118.097L173.115 98.3307Z" fill="url(#paint10_radial_1_874)"/>
<path d="M173.115 98.3307C179.062 88.0292 175.044 79.5984 166.824 74.8522C158.603 70.106 148.091 72.9226 143.345 81.1432L131.933 100.91C127.187 109.131 129.697 120.173 137.917 124.919C146.138 129.665 155.549 128.755 161.702 118.097L173.115 98.3307Z" fill="url(#paint11_radial_1_874)"/>
<path d="M173.115 98.3307C179.062 88.0292 175.044 79.5984 166.824 74.8522C158.603 70.106 148.091 72.9226 143.345 81.1432L131.933 100.91C127.187 109.131 129.697 120.173 137.917 124.919C146.138 129.665 155.549 128.755 161.702 118.097L173.115 98.3307Z" fill="url(#paint12_radial_1_874)"/>
<rect width="34.3748" height="60.2315" rx="17.1874" transform="matrix(-0.866025 -0.5 -0.5 0.866025 130.616 47.5457)" fill="#7DDE5B" fill-opacity="0.55"/>
<rect width="34.3748" height="60.2315" rx="17.1874" transform="matrix(-0.866025 -0.5 -0.5 0.866025 130.616 47.5457)" fill="url(#paint13_radial_1_874)"/>
<rect width="34.3748" height="60.2315" rx="17.1874" transform="matrix(-0.866025 -0.5 -0.5 0.866025 130.616 47.5457)" fill="url(#paint14_radial_1_874)"/>
<rect width="34.3748" height="60.2315" rx="17.1874" transform="matrix(-0.866025 -0.5 -0.5 0.866025 130.616 47.5457)" fill="url(#paint15_radial_1_874)"/>
<rect width="34.3748" height="60.2315" rx="17.1874" transform="matrix(-0.866025 -0.5 -0.5 0.866025 130.616 47.5457)" fill="url(#paint16_radial_1_874)"/>
<path d="M150.241 76.8601C154.918 68.76 151.689 59.1882 143.589 54.5116C135.489 49.835 125.131 52.6103 120.454 60.7104L104.779 87.8608C100.103 95.9609 102.878 106.318 110.978 110.995C119.078 115.672 129.436 112.896 134.112 104.796L150.241 76.8601Z" fill="url(#paint17_radial_1_874)"/>
<path d="M150.241 76.8601C154.918 68.76 151.689 59.1882 143.589 54.5116C135.489 49.835 125.131 52.6103 120.454 60.7104L104.779 87.8608C100.103 95.9609 102.878 106.318 110.978 110.995C119.078 115.672 129.436 112.896 134.112 104.796L150.241 76.8601Z" fill="url(#paint18_radial_1_874)"/>
<path d="M150.241 76.8601C154.918 68.76 151.689 59.1882 143.589 54.5116C135.489 49.835 125.131 52.6103 120.454 60.7104L104.779 87.8608C100.103 95.9609 102.878 106.318 110.978 110.995C119.078 115.672 129.436 112.896 134.112 104.796L150.241 76.8601Z" fill="url(#paint19_radial_1_874)"/>
<path d="M150.241 76.8601C154.918 68.76 151.689 59.1882 143.589 54.5116C135.489 49.835 125.131 52.6103 120.454 60.7104L104.779 87.8608C100.103 95.9609 102.878 106.318 110.978 110.995C119.078 115.672 129.436 112.896 134.112 104.796L150.241 76.8601Z" fill="url(#paint20_radial_1_874)"/>
<path d="M150.241 76.8601C154.918 68.76 151.689 59.1882 143.589 54.5116C135.489 49.835 125.131 52.6103 120.454 60.7104L104.779 87.8608C100.103 95.9609 102.878 106.318 110.978 110.995C119.078 115.672 129.436 112.896 134.112 104.796L150.241 76.8601Z" fill="url(#paint21_radial_1_874)"/>
<path d="M124.205 85.9223C132.823 90.8974 135.994 101.536 131.29 109.684C126.586 117.833 115.786 120.405 107.169 115.43L95.7619 108.844C90.6406 105.887 84.2224 107.416 81.4265 112.259L73.8378 125.403L72.9649 124.899C57.7735 116.128 57.5735 98.3513 64.52 86.3196C72.8559 71.8815 91.9912 67.3234 107.26 76.1389L124.205 85.9223Z" fill="url(#paint22_radial_1_874)"/>
<path d="M124.205 85.9223C132.823 90.8974 135.994 101.536 131.29 109.684C126.586 117.833 115.786 120.405 107.169 115.43L95.7619 108.844C90.6406 105.887 84.2224 107.416 81.4265 112.259L73.8378 125.403L72.9649 124.899C57.7735 116.128 57.5735 98.3513 64.52 86.3196C72.8559 71.8815 91.9912 67.3234 107.26 76.1389L124.205 85.9223Z" fill="url(#paint23_radial_1_874)"/>
<path d="M124.205 85.9223C132.823 90.8974 135.994 101.536 131.29 109.684C126.586 117.833 115.786 120.405 107.169 115.43L95.7619 108.844C90.6406 105.887 84.2224 107.416 81.4265 112.259L73.8378 125.403L72.9649 124.899C57.7735 116.128 57.5735 98.3513 64.52 86.3196C72.8559 71.8815 91.9912 67.3234 107.26 76.1389L124.205 85.9223Z" fill="url(#paint24_radial_1_874)"/>
<path d="M124.205 85.9223C132.823 90.8974 135.994 101.536 131.29 109.684C126.586 117.833 115.786 120.405 107.169 115.43L95.7619 108.844C90.6406 105.887 84.2224 107.416 81.4265 112.259L73.8378 125.403L72.9649 124.899C57.7735 116.128 57.5735 98.3513 64.52 86.3196C72.8559 71.8815 91.9912 67.3234 107.26 76.1389L124.205 85.9223Z" fill="url(#paint25_radial_1_874)"/>
<path d="M124.205 85.9223C132.823 90.8974 135.994 101.536 131.29 109.684C126.586 117.833 115.786 120.405 107.169 115.43L95.7619 108.844C90.6406 105.887 84.2224 107.416 81.4265 112.259L73.8378 125.403L72.9649 124.899C57.7735 116.128 57.5735 98.3513 64.52 86.3196C72.8559 71.8815 91.9912 67.3234 107.26 76.1389L124.205 85.9223Z" fill="url(#paint26_radial_1_874)"/>
<path d="M124.205 85.9223C132.823 90.8974 135.994 101.536 131.29 109.684C126.586 117.833 115.786 120.405 107.169 115.43L95.7619 108.844C90.6406 105.887 84.2224 107.416 81.4265 112.259L73.8378 125.403L72.9649 124.899C57.7735 116.128 57.5735 98.3513 64.52 86.3196C72.8559 71.8815 91.9912 67.3234 107.26 76.1389L124.205 85.9223Z" fill="url(#paint27_radial_1_874)"/>
<g filter="url(#filter3_f_1_874)">
<path d="M109.308 93.2303L99.9243 87.8126C86.285 79.17 76.736 80.3332 69.0862 88.3789" stroke="url(#paint28_linear_1_874)" stroke-width="10.125" stroke-linecap="round"/>
</g>
</g>
<defs>
<filter id="filter0_i_1_874" x="50.188" y="60.5209" width="139.926" height="131.609" filterUnits="userSpaceOnUse" color-interpolation-filters="sRGB">
<feFlood flood-opacity="0" result="BackgroundImageFix"/>
<feBlend mode="normal" in="SourceGraphic" in2="BackgroundImageFix" result="shape"/>
<feColorMatrix in="SourceAlpha" type="matrix" values="0 0 0 0 0 0 0 0 0 0 0 0 0 0 0 0 0 0 127 0" result="hardAlpha"/>
<feOffset/>
<feGaussianBlur stdDeviation="10.125"/>
<feComposite in2="hardAlpha" operator="arithmetic" k2="-1" k3="1"/>
<feColorMatrix type="matrix" values="0 0 0 0 0.862745 0 0 0 0 0.643137 0 0 0 0 0.572549 0 0 0 1 0"/>
<feBlend mode="normal" in2="shape" result="effect1_innerShadow_1_874"/>
</filter>
<filter id="filter1_f_1_874" x="70.9641" y="78.3961" width="90.1638" height="78.1504" filterUnits="userSpaceOnUse" color-interpolation-filters="sRGB">
<feFlood flood-opacity="0" result="BackgroundImageFix"/>
<feBlend mode="normal" in="SourceGraphic" in2="BackgroundImageFix" result="shape"/>
<feGaussianBlur stdDeviation="7.59375" result="effect1_foregroundBlur_1_874"/>
</filter>
<filter id="filter2_f_1_874" x="72.6533" y="41.676" width="120.23" height="108.424" filterUnits="userSpaceOnUse" color-interpolation-filters="sRGB">
<feFlood flood-opacity="0" result="BackgroundImageFix"/>
<feBlend mode="normal" in="SourceGraphic" in2="BackgroundImageFix" result="shape"/>
<feGaussianBlur stdDeviation="5.0625" result="effect1_foregroundBlur_1_874"/>
</filter>
<filter id="filter3_f_1_874" x="55.4174" y="68.1521" width="67.5604" height="38.7479" filterUnits="userSpaceOnUse" color-interpolation-filters="sRGB">
<feFlood flood-opacity="0" result="BackgroundImageFix"/>
<feBlend mode="normal" in="SourceGraphic" in2="BackgroundImageFix" result="shape"/>
<feGaussianBlur stdDeviation="4.30312" result="effect1_foregroundBlur_1_874"/>
</filter>
<linearGradient id="paint0_linear_1_874" x1="109.119" y1="140.384" x2="48.5535" y2="105.417" gradientUnits="userSpaceOnUse">
<stop stop-color="#DDA89A"/>
<stop offset="1" stop-color="#F5C1B2"/>
</linearGradient>
<radialGradient id="paint1_radial_1_874" cx="0" cy="0" r="1" gradientUnits="userSpaceOnUse" gradientTransform="translate(113.507 128.136) rotate(120) scale(66.0142 104.428)">
<stop offset="0.657259" stop-color="#B67995" stop-opacity="0"/>
<stop offset="1" stop-color="#B67995"/>
</radialGradient>
<radialGradient id="paint2_radial_1_874" cx="0" cy="0" r="1" gradientUnits="userSpaceOnUse" gradientTransform="translate(112.536 124.621) rotate(45.9259) scale(70.5734 97.1702)">
<stop offset="0.833799" stop-color="#ECB09B" stop-opacity="0"/>
<stop offset="1" stop-color="#ECB09B"/>
</radialGradient>
<linearGradient id="paint3_linear_1_874" x1="51.1978" y1="21.9604" x2="-8.65447" y2="41.9863" gradientUnits="userSpaceOnUse">
<stop stop-color="#AF7068"/>
<stop offset="1" stop-color="#AF7068" stop-opacity="0"/>
</linearGradient>
<radialGradient id="paint4_radial_1_874" cx="0" cy="0" r="1" gradientUnits="userSpaceOnUse" gradientTransform="translate(24.0128 26.833) rotate(-180) scale(19.4004 44.2282)">
<stop stop-color="#F8C7B2"/>
<stop offset="0.582184" stop-color="#E8B69E"/>
<stop offset="1" stop-color="#E2AD92"/>
</radialGradient>
<radialGradient id="paint5_radial_1_874" cx="0" cy="0" r="1" gradientUnits="userSpaceOnUse" gradientTransform="translate(31.2515 25.2519) rotate(-180) scale(8.50265 50.7196)">
<stop offset="0.413043" stop-color="#D1A083"/>
<stop offset="1" stop-color="#D1A083" stop-opacity="0"/>
</radialGradient>
<radialGradient id="paint6_radial_1_874" cx="0" cy="0" r="1" gradientUnits="userSpaceOnUse" gradientTransform="translate(3.60698 1.99068) rotate(53.0969) scale(10.3538 20.213)">
<stop stop-color="#D7AB93"/>
<stop offset="1" stop-color="#D7AB93" stop-opacity="0"/>
</radialGradient>
<radialGradient id="paint7_radial_1_874" cx="0" cy="0" r="1" gradientUnits="userSpaceOnUse" gradientTransform="translate(17.1874 9.75343) rotate(90) scale(40.7503 35.3578)">
<stop offset="0.666613" stop-color="#C38586" stop-opacity="0"/>
<stop offset="1" stop-color="#C38586"/>
</radialGradient>
<radialGradient id="paint8_radial_1_874" cx="0" cy="0" r="1" gradientUnits="userSpaceOnUse" gradientTransform="translate(145.555 98.0404) rotate(30) scale(19.4004 50.6285)">
<stop stop-color="#FFD6BA"/>
<stop offset="0.582184" stop-color="#EFBDA3"/>
<stop offset="1" stop-color="#D69F88"/>
</radialGradient>
<radialGradient id="paint9_radial_1_874" cx="0" cy="0" r="1" gradientUnits="userSpaceOnUse" gradientTransform="translate(138.792 92.0458) rotate(30) scale(6.68608 45.6551)">
<stop offset="0.131579" stop-color="#D39A76"/>
<stop offset="1" stop-color="#D39A76" stop-opacity="0"/>
</radialGradient>
<radialGradient id="paint10_radial_1_874" cx="0" cy="0" r="1" gradientUnits="userSpaceOnUse" gradientTransform="translate(177.445 83.6159) rotate(153.264) scale(11.3348 21.1356)">
<stop stop-color="#D7AB93"/>
<stop offset="1" stop-color="#D7AB93" stop-opacity="0"/>
</radialGradient>
<radialGradient id="paint11_radial_1_874" cx="0" cy="0" r="1" gradientUnits="userSpaceOnUse" gradientTransform="translate(161.241 84.5213) rotate(120) scale(46.6473 35.3578)">
<stop offset="0.666613" stop-color="#C38586" stop-opacity="0"/>
<stop offset="1" stop-color="#C38586"/>
</radialGradient>
<radialGradient id="paint12_radial_1_874" cx="0" cy="0" r="1" gradientUnits="userSpaceOnUse" gradientTransform="translate(180.435 79.7532) rotate(163.069) scale(14.1778 17.3532)">
<stop stop-color="#D2A68B"/>
<stop offset="1" stop-color="#D2A68B" stop-opacity="0"/>
</radialGradient>
<radialGradient id="paint13_radial_1_874" cx="0" cy="0" r="1" gradientUnits="userSpaceOnUse" gradientTransform="translate(25.7094 27.9891) rotate(-180) scale(22.9888 62.5038)">
<stop stop-color="#FFE8CA"/>
<stop offset="0.582184" stop-color="#F7BB9D"/>
<stop offset="1" stop-color="#DCA486"/>
<stop offset="1" stop-color="#F0A47D"/>
</radialGradient>
<radialGradient id="paint14_radial_1_874" cx="0" cy="0" r="1" gradientUnits="userSpaceOnUse" gradientTransform="translate(38.9469 31.2443) rotate(180) scale(9.59733 68.2767)">
<stop offset="0.131579" stop-color="#E8AC88"/>
<stop offset="1" stop-color="#E8AC88" stop-opacity="0"/>
</radialGradient>
<radialGradient id="paint15_radial_1_874" cx="0" cy="0" r="1" gradientUnits="userSpaceOnUse" gradientTransform="translate(3.60698 2.37411) rotate(57.8043) scale(11.6684 21.3904)">
<stop stop-color="#D7AB93"/>
<stop offset="1" stop-color="#D7AB93" stop-opacity="0"/>
</radialGradient>
<radialGradient id="paint16_radial_1_874" cx="0" cy="0" r="1" gradientUnits="userSpaceOnUse" gradientTransform="translate(2.94891 -2.66859) rotate(48.1004) scale(14.4974 17.6808)">
<stop stop-color="#D2A68B"/>
<stop offset="1" stop-color="#D2A68B" stop-opacity="0"/>
</radialGradient>
<radialGradient id="paint17_radial_1_874" cx="0" cy="0" r="1" gradientUnits="userSpaceOnUse" gradientTransform="translate(120.438 81.159) rotate(30) scale(19.1159 57.117)">
<stop stop-color="#FFE5C7"/>
<stop offset="0.582184" stop-color="#F6C2A7"/>
<stop offset="1" stop-color="#DCA486"/>
</radialGradient>
<radialGradient id="paint18_radial_1_874" cx="0" cy="0" r="1" gradientUnits="userSpaceOnUse" gradientTransform="translate(108.104 73.0914) rotate(30) scale(9.45661 73.9331)">
<stop offset="0.131579" stop-color="#E8AC88"/>
<stop offset="1" stop-color="#E8AC88" stop-opacity="0"/>
</radialGradient>
<radialGradient id="paint19_radial_1_874" cx="0" cy="0" r="1" gradientUnits="userSpaceOnUse" gradientTransform="translate(153.892 63.4286) rotate(149.81) scale(12.3228 21.611)">
<stop stop-color="#D7AB93"/>
<stop offset="1" stop-color="#D7AB93" stop-opacity="0"/>
</radialGradient>
<radialGradient id="paint20_radial_1_874" cx="0" cy="0" r="1" gradientUnits="userSpaceOnUse" gradientTransform="translate(137.291 65.4198) rotate(120) scale(52.6257 34.8393)">
<stop offset="0.666613" stop-color="#C38586" stop-opacity="0"/>
<stop offset="1" stop-color="#C38586"/>
</radialGradient>
<radialGradient id="paint21_radial_1_874" cx="0" cy="0" r="1" gradientUnits="userSpaceOnUse" gradientTransform="translate(157.184 59.0239) rotate(159.23) scale(15.0844 18.1308)">
<stop stop-color="#D2A68B"/>
<stop offset="1" stop-color="#D2A68B" stop-opacity="0"/>
</radialGradient>
<radialGradient id="paint22_radial_1_874" cx="0" cy="0" r="1" gradientUnits="userSpaceOnUse" gradientTransform="translate(97.387 77.3944) rotate(106.541) scale(28.3888 61.6102)">
<stop stop-color="#FFDABA"/>
<stop offset="1" stop-color="#EDB8A9"/>
</radialGradient>
<radialGradient id="paint23_radial_1_874" cx="0" cy="0" r="1" gradientUnits="userSpaceOnUse" gradientTransform="translate(98.0217 116.113) rotate(120) scale(14.0322 32.4829)">
<stop offset="0.444526" stop-color="#BD8088"/>
<stop offset="1" stop-color="#BD8088" stop-opacity="0"/>
</radialGradient>
<radialGradient id="paint24_radial_1_874" cx="0" cy="0" r="1" gradientUnits="userSpaceOnUse" gradientTransform="translate(72.6352 124.708) rotate(-96.9507) scale(22.6039 36.1739)">
<stop offset="0.385501" stop-color="#EBB7A8"/>
<stop offset="1" stop-color="#EBB7A8" stop-opacity="0"/>
</radialGradient>
<radialGradient id="paint25_radial_1_874" cx="0" cy="0" r="1" gradientUnits="userSpaceOnUse" gradientTransform="translate(133.396 111.511) rotate(-150) scale(18.968 27.4646)">
<stop stop-color="#DCA892"/>
<stop offset="1" stop-color="#DCA892" stop-opacity="0"/>
</radialGradient>
<radialGradient id="paint26_radial_1_874" cx="0" cy="0" r="1" gradientUnits="userSpaceOnUse" gradientTransform="translate(116.185 121.763) rotate(-109.844) scale(19.76 20.471)">
<stop stop-color="#C78C90"/>
<stop offset="1" stop-color="#C78C90" stop-opacity="0"/>
</radialGradient>
<radialGradient id="paint27_radial_1_874" cx="0" cy="0" r="1" gradientUnits="userSpaceOnUse" gradientTransform="translate(122.654 119.307) rotate(-109.193) scale(7.62571 12.7635)">
<stop stop-color="#D89D90"/>
<stop offset="1" stop-color="#D89D90" stop-opacity="0"/>
</radialGradient>
<linearGradient id="paint28_linear_1_874" x1="108.924" y1="93.8965" x2="50.0297" y2="81.4695" gradientUnits="userSpaceOnUse">
<stop stop-color="#FFDDC2"/>
<stop offset="1" stop-color="#FFDDC2" stop-opacity="0"/>
</linearGradient>
<clipPath id="clip0_1_874">
<rect width="176" height="176" fill="white" transform="matrix(-0.866025 -0.5 -0.5 0.866025 241 88)"/>
</clipPath>
</defs>
</svg>
