<svg width="241" height="241" viewBox="0 0 241 241" fill="none" xmlns="http://www.w3.org/2000/svg">
<g clip-path="url(#clip0_1_904)">
<g filter="url(#filter0_i_1_904)">
<path d="M166.401 77.9403C171.856 72.0804 171.448 62.7039 165.589 57.2489C159.729 51.7939 150.522 51.9874 145.067 57.8474L118.559 86.9546L133.057 60.9547C136.956 53.9624 134.448 45.1333 127.456 41.2342C120.464 37.3353 111.634 39.8429 107.736 46.8353L87.7201 82.7304C86.2544 85.3591 84.4359 87.7749 82.3152 89.9106L74.7459 97.5339C70.1062 101.759 59.2219 113.1 56.4527 124.51C52.0786 138.813 56.5401 154.85 62.557 165.055C68.5738 175.26 76.9984 183.425 92.592 189.709C113.481 196.463 131.553 189.487 145.044 174.752C155.761 163.543 165.496 150.775 169.353 145.857L134.277 112.163L166.401 77.9403Z" fill="#EDB6A9"/>
<path d="M166.401 77.9403C171.856 72.0804 171.448 62.7039 165.589 57.2489C159.729 51.7939 150.522 51.9874 145.067 57.8474L118.559 86.9546L133.057 60.9547C136.956 53.9624 134.448 45.1333 127.456 41.2342C120.464 37.3353 111.634 39.8429 107.736 46.8353L87.7201 82.7304C86.2544 85.3591 84.4359 87.7749 82.3152 89.9106L74.7459 97.5339C70.1062 101.759 59.2219 113.1 56.4527 124.51C52.0786 138.813 56.5401 154.85 62.557 165.055C68.5738 175.26 76.9984 183.425 92.592 189.709C113.481 196.463 131.553 189.487 145.044 174.752C155.761 163.543 165.496 150.775 169.353 145.857L134.277 112.163L166.401 77.9403Z" fill="url(#paint0_radial_1_904)"/>
</g>
<g filter="url(#filter1_f_1_904)">
<rect width="38.7627" height="33.6715" rx="16.5" transform="matrix(-0.782677 -0.622429 -0.622429 0.782677 171.234 133.413)" fill="#A86257"/>
</g>
<g filter="url(#filter2_f_1_904)">
<path d="M64.5782 118.28C65.0805 117.508 65.5998 116.751 66.1297 116.014C79.7681 99.9866 97.5055 105.117 102.686 108.107L111.399 113.138C118.058 117.015 120.373 125.479 116.568 132.069C113.813 136.841 108.602 139.325 103.398 138.879L103.39 138.905C102.887 138.882 102.111 138.76 101.125 138.494C100.732 138.394 100.342 138.276 99.955 138.14C98.4773 137.647 96.6807 136.88 94.7044 135.739C94.5615 135.657 94.4218 135.576 94.2851 135.497L94.3138 135.448L64.5782 118.28Z" fill="#A86257"/>
</g>
<rect width="28.4988" height="40.9034" rx="14.2494" transform="matrix(-0.782677 -0.622429 -0.622429 0.782677 182.793 128.991)" fill="#EAB89A"/>
<rect width="28.4988" height="40.9034" rx="14.2494" transform="matrix(-0.782677 -0.622429 -0.622429 0.782677 182.793 128.991)" fill="url(#paint1_linear_1_904)"/>
<rect width="28.4988" height="40.9034" rx="14.2494" transform="matrix(-0.782677 -0.622429 -0.622429 0.782677 182.793 128.991)" fill="url(#paint2_linear_1_904)"/>
<rect width="28.4988" height="40.9034" rx="14.2494" transform="matrix(-0.782677 -0.622429 -0.622429 0.782677 182.793 128.991)" fill="url(#paint3_radial_1_904)"/>
<rect width="28.4988" height="40.9034" rx="14.2494" transform="matrix(-0.782677 -0.622429 -0.622429 0.782677 182.793 128.991)" fill="url(#paint4_radial_1_904)"/>
<path d="M166.401 77.9403C171.856 72.0804 171.448 62.7039 165.589 57.2489C159.729 51.7939 150.522 51.9875 145.067 57.8474L115.609 89.9558C110.154 95.8157 117.312 100.068 121.812 104.651C126.311 109.233 133.391 113.662 138.846 107.802L166.401 77.9403Z" fill="url(#paint5_linear_1_904)"/>
<path d="M166.401 77.9403C171.856 72.0804 171.448 62.7039 165.589 57.2489C159.729 51.7939 150.522 51.9875 145.067 57.8474L115.609 89.9558C110.154 95.8157 117.312 100.068 121.812 104.651C126.311 109.233 133.391 113.662 138.846 107.802L166.401 77.9403Z" fill="url(#paint6_linear_1_904)"/>
<path d="M166.401 77.9403C171.856 72.0804 171.448 62.7039 165.589 57.2489C159.729 51.7939 150.522 51.9875 145.067 57.8474L115.609 89.9558C110.154 95.8157 117.312 100.068 121.812 104.651C126.311 109.233 133.391 113.662 138.846 107.802L166.401 77.9403Z" fill="url(#paint7_linear_1_904)"/>
<path d="M166.401 77.9403C171.856 72.0804 171.448 62.7039 165.589 57.2489C159.729 51.7939 150.522 51.9875 145.067 57.8474L115.609 89.9558C110.154 95.8157 117.312 100.068 121.812 104.651C126.311 109.233 133.391 113.662 138.846 107.802L166.401 77.9403Z" fill="url(#paint8_linear_1_904)"/>
<path d="M166.401 77.9403C171.856 72.0804 171.448 62.7039 165.589 57.2489C159.729 51.7939 150.522 51.9875 145.067 57.8474L115.609 89.9558C110.154 95.8157 117.312 100.068 121.812 104.651C126.311 109.233 133.391 113.662 138.846 107.802L166.401 77.9403Z" fill="url(#paint9_radial_1_904)"/>
<path d="M133.288 61.0887C137.187 54.0964 134.68 45.2672 127.687 41.3682C120.695 37.4692 111.634 39.841 107.735 46.8333L92.2886 74.5321C88.3896 81.5245 92.5972 86.136 99.5895 90.035C106.582 93.934 113.498 95.6062 117.397 88.6138L133.288 61.0887Z" fill="url(#paint10_linear_1_904)"/>
<path d="M133.288 61.0887C137.187 54.0964 134.68 45.2672 127.687 41.3682C120.695 37.4692 111.634 39.841 107.735 46.8333L92.2886 74.5321C88.3896 81.5245 92.5972 86.136 99.5895 90.035C106.582 93.934 113.498 95.6062 117.397 88.6138L133.288 61.0887Z" fill="url(#paint11_linear_1_904)"/>
<path d="M133.288 61.0887C137.187 54.0964 134.68 45.2672 127.687 41.3682C120.695 37.4692 111.634 39.841 107.735 46.8333L92.2886 74.5321C88.3896 81.5245 92.5972 86.136 99.5895 90.035C106.582 93.934 113.498 95.6062 117.397 88.6138L133.288 61.0887Z" fill="url(#paint12_radial_1_904)"/>
<path d="M166.401 77.9403C171.856 72.0804 171.448 62.7039 165.589 57.2489C159.729 51.7939 150.522 51.9874 145.067 57.8474L118.559 86.9546L133.057 60.9547C136.956 53.9624 134.448 45.1333 127.456 41.2342C120.464 37.3353 111.634 39.8429 107.736 46.8353L87.7201 82.7304C86.2544 85.3591 84.4359 87.7749 82.3152 89.9106L74.7459 97.5339C70.1062 101.759 59.2219 113.1 56.4527 124.51C52.0786 138.813 56.5401 154.85 62.557 165.055C68.5738 175.26 76.9984 183.425 92.592 189.709C113.481 196.463 131.553 189.487 145.044 174.752C155.761 163.543 165.496 150.775 169.353 145.857L134.277 112.163L166.401 77.9403Z" fill="url(#paint13_radial_1_904)"/>
<g filter="url(#filter3_f_1_904)">
<rect width="4.80673" height="29.1661" rx="2.40336" transform="matrix(-0.786519 -0.617566 -0.617566 0.786519 163.382 121.152)" fill="#D99F7E"/>
</g>
<rect width="29.2005" height="47.8132" rx="14.2494" transform="matrix(-0.782677 -0.622429 -0.622429 0.782677 168.727 110.907)" fill="#F7C2AA"/>
<rect width="29.2005" height="47.8132" rx="14.2494" transform="matrix(-0.782677 -0.622429 -0.622429 0.782677 168.727 110.907)" fill="url(#paint14_linear_1_904)"/>
<rect width="29.2005" height="47.8132" rx="14.2494" transform="matrix(-0.782677 -0.622429 -0.622429 0.782677 168.727 110.907)" fill="url(#paint15_linear_1_904)"/>
<rect width="29.2005" height="47.8132" rx="14.2494" transform="matrix(-0.782677 -0.622429 -0.622429 0.782677 168.727 110.907)" fill="url(#paint16_radial_1_904)"/>
<rect width="29.2005" height="47.8132" rx="14.2494" transform="matrix(-0.782677 -0.622429 -0.622429 0.782677 168.727 110.907)" fill="url(#paint17_radial_1_904)"/>
<g opacity="0.5" filter="url(#filter4_f_1_904)">
<rect width="5.60478" height="20.0928" rx="2.80239" transform="matrix(-0.784448 -0.620194 -0.620194 0.784448 164.579 127.534)" fill="url(#paint18_linear_1_904)"/>
</g>
<g opacity="0.5" filter="url(#filter5_f_1_904)">
<rect width="12.4935" height="33.6317" rx="6.24676" transform="matrix(-0.784448 -0.620194 -0.620194 0.784448 154.575 107.037)" fill="url(#paint19_linear_1_904)"/>
</g>
<g filter="url(#filter6_f_1_904)">
<path d="M152.804 63.9261L124.757 93.6949" stroke="#FFD9BD" stroke-width="8.25" stroke-linecap="square"/>
</g>
<g filter="url(#filter7_f_1_904)">
<path d="M117.94 48.0635L97.3314 86.7814" stroke="#FFD9BD" stroke-width="8.25" stroke-linecap="square"/>
</g>
<path d="M63.6533 110.012C60.4934 114.424 57.6782 119.461 56.4526 124.511C53.6371 133.717 54.4825 143.642 57.047 152.268L70.5892 145.274C76.1879 133.959 80.8566 129.251 83.8613 128.222C87.249 127.061 88.4631 127.762 93.5599 130.705C95.6296 131.9 97.5129 132.7 99.0627 133.212C99.4685 133.353 99.8778 133.476 100.289 133.579C101.324 133.855 102.139 133.979 102.667 134L102.676 133.973C108.142 134.413 113.632 131.754 116.556 126.689C120.595 119.695 118.213 110.756 111.24 106.695L102.114 101.427C96.6892 98.2944 78.082 92.9755 63.6533 110.012Z" fill="#EDB6A9"/>
<path d="M63.6533 110.012C60.4934 114.424 57.6782 119.461 56.4526 124.511C53.6371 133.717 54.4825 143.642 57.047 152.268L70.5892 145.274C76.1879 133.959 80.8566 129.251 83.8613 128.222C87.249 127.061 88.4631 127.762 93.5599 130.705C95.6296 131.9 97.5129 132.7 99.0627 133.212C99.4685 133.353 99.8778 133.476 100.289 133.579C101.324 133.855 102.139 133.979 102.667 134L102.676 133.973C108.142 134.413 113.632 131.754 116.556 126.689C120.595 119.695 118.213 110.756 111.24 106.695L102.114 101.427C96.6892 98.2944 78.082 92.9755 63.6533 110.012Z" fill="url(#paint20_radial_1_904)"/>
<path d="M63.6533 110.012C60.4934 114.424 57.6782 119.461 56.4526 124.511C53.6371 133.717 54.4825 143.642 57.047 152.268L70.5892 145.274C76.1879 133.959 80.8566 129.251 83.8613 128.222C87.249 127.061 88.4631 127.762 93.5599 130.705C95.6296 131.9 97.5129 132.7 99.0627 133.212C99.4685 133.353 99.8778 133.476 100.289 133.579C101.324 133.855 102.139 133.979 102.667 134L102.676 133.973C108.142 134.413 113.632 131.754 116.556 126.689C120.595 119.695 118.213 110.756 111.24 106.695L102.114 101.427C96.6892 98.2944 78.082 92.9755 63.6533 110.012Z" fill="url(#paint21_radial_1_904)"/>
<path d="M63.6533 110.012C60.4934 114.424 57.6782 119.461 56.4526 124.511C53.6371 133.717 54.4825 143.642 57.047 152.268L70.5892 145.274C76.1879 133.959 80.8566 129.251 83.8613 128.222C87.249 127.061 88.4631 127.762 93.5599 130.705C95.6296 131.9 97.5129 132.7 99.0627 133.212C99.4685 133.353 99.8778 133.476 100.289 133.579C101.324 133.855 102.139 133.979 102.667 134L102.676 133.973C108.142 134.413 113.632 131.754 116.556 126.689C120.595 119.695 118.213 110.756 111.24 106.695L102.114 101.427C96.6892 98.2944 78.082 92.9755 63.6533 110.012Z" fill="url(#paint22_radial_1_904)"/>
<g filter="url(#filter8_f_1_904)">
<path d="M104.331 115.297L94.0546 109.363C88.3695 106.081 81.4148 104.613 75.9548 108.258C72.6266 110.479 69.0364 113.857 66.0906 118.96" stroke="url(#paint23_linear_1_904)" stroke-width="11" stroke-linecap="round"/>
</g>
<path fill-rule="evenodd" clip-rule="evenodd" d="M165.588 57.249C171.448 62.704 171.856 72.0805 166.401 77.9404L134.277 112.163L148.725 126.043L143.898 132.114C138.999 138.273 140.022 147.237 146.181 152.135C152.34 157.034 161.305 156.011 166.203 149.852L167.9 147.717C163.378 153.52 154.601 164.756 145.044 174.752C131.553 189.487 113.481 196.463 92.5919 189.709C76.9983 183.425 68.5737 175.26 62.5569 165.055C56.54 154.85 52.0785 138.813 56.4526 124.511C59.2218 113.1 70.1061 101.759 74.7458 97.5339L82.3151 89.9107C84.4358 87.775 86.2543 85.3592 87.72 82.7305L107.735 46.8354C111.634 39.843 120.464 37.3353 127.456 41.2343C134.448 45.1334 136.956 53.9625 133.057 60.9548L118.559 86.9547L145.067 57.8475C150.522 51.9875 159.729 51.794 165.588 57.249Z" fill="url(#paint24_radial_1_904)"/>
<path fill-rule="evenodd" clip-rule="evenodd" d="M165.588 57.249C171.448 62.704 171.856 72.0805 166.401 77.9404L134.277 112.163L148.725 126.043L143.898 132.114C138.999 138.273 140.022 147.237 146.181 152.135C152.34 157.034 161.305 156.011 166.203 149.852L167.9 147.717C163.378 153.52 154.601 164.756 145.044 174.752C131.553 189.487 113.481 196.463 92.5919 189.709C76.9983 183.425 68.5737 175.26 62.5569 165.055C56.54 154.85 52.0785 138.813 56.4526 124.511C59.2218 113.1 70.1061 101.759 74.7458 97.5339L82.3151 89.9107C84.4358 87.775 86.2543 85.3592 87.72 82.7305L107.735 46.8354C111.634 39.843 120.464 37.3353 127.456 41.2343C134.448 45.1334 136.956 53.9625 133.057 60.9548L118.559 86.9547L145.067 57.8475C150.522 51.9875 159.729 51.794 165.588 57.249Z" fill="url(#paint25_radial_1_904)"/>
<path fill-rule="evenodd" clip-rule="evenodd" d="M165.588 57.249C171.448 62.704 171.856 72.0805 166.401 77.9404L134.277 112.163L148.725 126.043L143.898 132.114C138.999 138.273 140.022 147.237 146.181 152.135C152.34 157.034 161.305 156.011 166.203 149.852L167.9 147.717C163.378 153.52 154.601 164.756 145.044 174.752C131.553 189.487 113.481 196.463 92.5919 189.709C76.9983 183.425 68.5737 175.26 62.5569 165.055C56.54 154.85 52.0785 138.813 56.4526 124.511C59.2218 113.1 70.1061 101.759 74.7458 97.5339L82.3151 89.9107C84.4358 87.775 86.2543 85.3592 87.72 82.7305L107.735 46.8354C111.634 39.843 120.464 37.3353 127.456 41.2343C134.448 45.1334 136.956 53.9625 133.057 60.9548L118.559 86.9547L145.067 57.8475C150.522 51.9875 159.729 51.794 165.588 57.249Z" fill="url(#paint26_radial_1_904)"/>
</g>
<defs>
<filter id="filter0_i_1_904" x="54.6968" y="35.2714" width="118.303" height="157.026" filterUnits="userSpaceOnUse" color-interpolation-filters="sRGB">
<feFlood flood-opacity="0" result="BackgroundImageFix"/>
<feBlend mode="normal" in="SourceGraphic" in2="BackgroundImageFix" result="shape"/>
<feColorMatrix in="SourceAlpha" type="matrix" values="0 0 0 0 0 0 0 0 0 0 0 0 0 0 0 0 0 0 127 0" result="hardAlpha"/>
<feOffset dx="2.75" dy="-4.125"/>
<feGaussianBlur stdDeviation="4.125"/>
<feComposite in2="hardAlpha" operator="arithmetic" k2="-1" k3="1"/>
<feColorMatrix type="matrix" values="0 0 0 0 0.737255 0 0 0 0 0.494118 0 0 0 0 0.588235 0 0 0 1 0"/>
<feBlend mode="normal" in2="shape" result="effect1_innerShadow_1_904"/>
</filter>
<filter id="filter1_f_1_904" x="115.62" y="104.969" width="59.9297" height="59.1138" filterUnits="userSpaceOnUse" color-interpolation-filters="sRGB">
<feFlood flood-opacity="0" result="BackgroundImageFix"/>
<feBlend mode="normal" in="SourceGraphic" in2="BackgroundImageFix" result="shape"/>
<feGaussianBlur stdDeviation="5.5" result="effect1_foregroundBlur_1_904"/>
</filter>
<filter id="filter2_f_1_904" x="53.5781" y="93.8896" width="75.8213" height="56.0408" filterUnits="userSpaceOnUse" color-interpolation-filters="sRGB">
<feFlood flood-opacity="0" result="BackgroundImageFix"/>
<feBlend mode="normal" in="SourceGraphic" in2="BackgroundImageFix" result="shape"/>
<feGaussianBlur stdDeviation="5.5" result="effect1_foregroundBlur_1_904"/>
</filter>
<filter id="filter3_f_1_904" x="137.06" y="113.654" width="30.8506" height="34.9661" filterUnits="userSpaceOnUse" color-interpolation-filters="sRGB">
<feFlood flood-opacity="0" result="BackgroundImageFix"/>
<feBlend mode="normal" in="SourceGraphic" in2="BackgroundImageFix" result="shape"/>
<feGaussianBlur stdDeviation="2.75" result="effect1_foregroundBlur_1_904"/>
</filter>
<filter id="filter4_f_1_904" x="144.73" y="121.067" width="22.8406" height="25.2202" filterUnits="userSpaceOnUse" color-interpolation-filters="sRGB">
<feFlood flood-opacity="0" result="BackgroundImageFix"/>
<feBlend mode="normal" in="SourceGraphic" in2="BackgroundImageFix" result="shape"/>
<feGaussianBlur stdDeviation="2.0625" result="effect1_foregroundBlur_1_904"/>
</filter>
<filter id="filter5_f_1_904" x="120.944" y="96.3161" width="36.604" height="40.0758" filterUnits="userSpaceOnUse" color-interpolation-filters="sRGB">
<feFlood flood-opacity="0" result="BackgroundImageFix"/>
<feBlend mode="normal" in="SourceGraphic" in2="BackgroundImageFix" result="shape"/>
<feGaussianBlur stdDeviation="2.75" result="effect1_foregroundBlur_1_904"/>
</filter>
<filter id="filter6_f_1_904" x="110.676" y="49.8451" width="56.2092" height="57.9308" filterUnits="userSpaceOnUse" color-interpolation-filters="sRGB">
<feFlood flood-opacity="0" result="BackgroundImageFix"/>
<feBlend mode="normal" in="SourceGraphic" in2="BackgroundImageFix" result="shape"/>
<feGaussianBlur stdDeviation="4.125" result="effect1_foregroundBlur_1_904"/>
</filter>
<filter id="filter7_f_1_904" x="83.502" y="34.234" width="48.2673" height="66.3769" filterUnits="userSpaceOnUse" color-interpolation-filters="sRGB">
<feFlood flood-opacity="0" result="BackgroundImageFix"/>
<feBlend mode="normal" in="SourceGraphic" in2="BackgroundImageFix" result="shape"/>
<feGaussianBlur stdDeviation="4.125" result="effect1_foregroundBlur_1_904"/>
</filter>
<filter id="filter8_f_1_904" x="49.5896" y="89.6188" width="71.2427" height="45.842" filterUnits="userSpaceOnUse" color-interpolation-filters="sRGB">
<feFlood flood-opacity="0" result="BackgroundImageFix"/>
<feBlend mode="normal" in="SourceGraphic" in2="BackgroundImageFix" result="shape"/>
<feGaussianBlur stdDeviation="5.5" result="effect1_foregroundBlur_1_904"/>
</filter>
<radialGradient id="paint0_radial_1_904" cx="0" cy="0" r="1" gradientUnits="userSpaceOnUse" gradientTransform="translate(86.3179 125.66) rotate(70.6013) scale(27.7066 24.8363)">
<stop stop-color="#EEB9B1"/>
<stop offset="1" stop-color="#EEB9B1" stop-opacity="0"/>
</radialGradient>
<linearGradient id="paint1_linear_1_904" x1="1.43651" y1="24.3406" x2="13.7443" y2="23.8339" gradientUnits="userSpaceOnUse">
<stop stop-color="#E6B194"/>
<stop offset="1" stop-color="#E6B194" stop-opacity="0"/>
</linearGradient>
<linearGradient id="paint2_linear_1_904" x1="0.617524" y1="24.2728" x2="4.43151" y2="24.1165" gradientUnits="userSpaceOnUse">
<stop stop-color="#ECB19B"/>
<stop offset="1" stop-color="#ECB19B" stop-opacity="0"/>
</linearGradient>
<radialGradient id="paint3_radial_1_904" cx="0" cy="0" r="1" gradientUnits="userSpaceOnUse" gradientTransform="translate(11.1499 41.2067) rotate(-81.5063) scale(15.7106 21.2499)">
<stop stop-color="#C6888D"/>
<stop offset="1" stop-color="#C6888D" stop-opacity="0"/>
</radialGradient>
<radialGradient id="paint4_radial_1_904" cx="0" cy="0" r="1" gradientUnits="userSpaceOnUse" gradientTransform="translate(24.0945 -1.83038) rotate(112.53) scale(18.4251 21.8055)">
<stop stop-color="#D29D7F"/>
<stop offset="1" stop-color="#D29D7F" stop-opacity="0"/>
</radialGradient>
<linearGradient id="paint5_linear_1_904" x1="153.616" y1="90.9899" x2="141.548" y2="79.3214" gradientUnits="userSpaceOnUse">
<stop stop-color="#F0A985"/>
<stop offset="1" stop-color="#F0A985" stop-opacity="0"/>
</linearGradient>
<linearGradient id="paint6_linear_1_904" x1="155.645" y1="92.2308" x2="151.207" y2="88.7333" gradientUnits="userSpaceOnUse">
<stop stop-color="#F5B190"/>
<stop offset="1" stop-color="#F5B190" stop-opacity="0"/>
</linearGradient>
<linearGradient id="paint7_linear_1_904" x1="122.616" y1="79.9212" x2="127.587" y2="84.9319" gradientUnits="userSpaceOnUse">
<stop stop-color="#DC9B7F"/>
<stop offset="1" stop-color="#DC9B7F" stop-opacity="0"/>
</linearGradient>
<linearGradient id="paint8_linear_1_904" x1="118.431" y1="112.225" x2="131.715" y2="94.8881" gradientUnits="userSpaceOnUse">
<stop offset="0.306897" stop-color="#EDB6A9"/>
<stop offset="1" stop-color="#EDB6A9" stop-opacity="0"/>
</linearGradient>
<radialGradient id="paint9_radial_1_904" cx="0" cy="0" r="1" gradientUnits="userSpaceOnUse" gradientTransform="translate(160.036 53.6077) rotate(114.832) scale(15.2633 17.1555)">
<stop stop-color="#E8BEA3"/>
<stop offset="1" stop-color="#E8BEA3" stop-opacity="0"/>
</radialGradient>
<linearGradient id="paint10_linear_1_904" x1="131.311" y1="73.3192" x2="115.935" y2="65.5319" gradientUnits="userSpaceOnUse">
<stop stop-color="#D99676"/>
<stop offset="1" stop-color="#C58560" stop-opacity="0"/>
<stop offset="1" stop-color="#D99676" stop-opacity="0"/>
</linearGradient>
<linearGradient id="paint11_linear_1_904" x1="103.229" y1="86.8506" x2="106.874" y2="79.4619" gradientUnits="userSpaceOnUse">
<stop stop-color="#EDB6A9"/>
<stop offset="1" stop-color="#EDB6A9" stop-opacity="0"/>
</linearGradient>
<radialGradient id="paint12_radial_1_904" cx="0" cy="0" r="1" gradientUnits="userSpaceOnUse" gradientTransform="translate(118.645 36.1459) rotate(98.3669) scale(21.3506 18.5276)">
<stop stop-color="#FFD6B9"/>
<stop offset="1" stop-color="#FFD6B9" stop-opacity="0"/>
</radialGradient>
<radialGradient id="paint13_radial_1_904" cx="0" cy="0" r="1" gradientUnits="userSpaceOnUse" gradientTransform="translate(78.3311 97.3449) rotate(17.5513) scale(61.1361 48.3173)">
<stop stop-color="#FFE7C7"/>
<stop offset="1" stop-color="#FFE7C7" stop-opacity="0"/>
</radialGradient>
<linearGradient id="paint14_linear_1_904" x1="1.47189" y1="28.4524" x2="11.9438" y2="28.24" gradientUnits="userSpaceOnUse">
<stop stop-color="#D3977C"/>
<stop offset="1" stop-color="#D3977C" stop-opacity="0"/>
</linearGradient>
<linearGradient id="paint15_linear_1_904" x1="33.0566" y1="29.4293" x2="16.3509" y2="28.8012" gradientUnits="userSpaceOnUse">
<stop stop-color="#FFDABA"/>
<stop offset="1" stop-color="#FFDABA" stop-opacity="0"/>
</linearGradient>
<radialGradient id="paint16_radial_1_904" cx="0" cy="0" r="1" gradientUnits="userSpaceOnUse" gradientTransform="translate(11.4244 48.1678) rotate(-82.5422) scale(18.3181 21.8284)">
<stop stop-color="#C6888D"/>
<stop offset="1" stop-color="#C6888D" stop-opacity="0"/>
</radialGradient>
<radialGradient id="paint17_radial_1_904" cx="0" cy="0" r="1" gradientUnits="userSpaceOnUse" gradientTransform="translate(10.4351 -2.80236) rotate(69.3043) scale(16.5356 17.7574)">
<stop stop-color="#DAAD94"/>
<stop offset="1" stop-color="#DAAD94" stop-opacity="0"/>
</radialGradient>
<linearGradient id="paint18_linear_1_904" x1="3.92563" y1="16.3967" x2="4.05626" y2="-4.69482" gradientUnits="userSpaceOnUse">
<stop stop-color="#F0C0B2"/>
<stop offset="1" stop-color="#F0C0B2" stop-opacity="0"/>
</linearGradient>
<linearGradient id="paint19_linear_1_904" x1="8.75477" y1="24.8929" x2="8.24599" y2="-16.2701" gradientUnits="userSpaceOnUse">
<stop stop-color="#FFE5CB"/>
<stop offset="1" stop-color="#FFE5CB" stop-opacity="0"/>
</linearGradient>
<radialGradient id="paint20_radial_1_904" cx="0" cy="0" r="1" gradientUnits="userSpaceOnUse" gradientTransform="translate(82.8582 151.15) rotate(-79.352) scale(55.8448 74.7086)">
<stop offset="0.681941" stop-color="#FAC4A3" stop-opacity="0"/>
<stop offset="1" stop-color="#FAC4A3"/>
</radialGradient>
<radialGradient id="paint21_radial_1_904" cx="0" cy="0" r="1" gradientUnits="userSpaceOnUse" gradientTransform="translate(126.186 115.324) rotate(179.644) scale(19.5283 30.9262)">
<stop stop-color="#EBA987"/>
<stop offset="1" stop-color="#EBA987" stop-opacity="0"/>
</radialGradient>
<radialGradient id="paint22_radial_1_904" cx="0" cy="0" r="1" gradientUnits="userSpaceOnUse" gradientTransform="translate(89.2124 129.822) rotate(113.417) scale(16.4453 33.5797)">
<stop stop-color="#C58285"/>
<stop offset="1" stop-color="#C58285" stop-opacity="0"/>
</radialGradient>
<linearGradient id="paint23_linear_1_904" x1="102.477" y1="114.226" x2="64.9832" y2="113.278" gradientUnits="userSpaceOnUse">
<stop stop-color="#FFDEC6"/>
<stop offset="1" stop-color="#FFDEC6" stop-opacity="0"/>
</linearGradient>
<radialGradient id="paint24_radial_1_904" cx="0" cy="0" r="1" gradientUnits="userSpaceOnUse" gradientTransform="translate(126.203 148.268) rotate(-161.85) scale(78.6788 141.366)">
<stop offset="0.670948" stop-color="#F1BCB0" stop-opacity="0"/>
<stop offset="1" stop-color="#F1BCB0"/>
</radialGradient>
<radialGradient id="paint25_radial_1_904" cx="0" cy="0" r="1" gradientUnits="userSpaceOnUse" gradientTransform="translate(145.905 131.198) rotate(170.403) scale(91.116 113.255)">
<stop offset="0.901698" stop-color="#E0A494" stop-opacity="0"/>
<stop offset="1" stop-color="#E0A494"/>
</radialGradient>
<radialGradient id="paint26_radial_1_904" cx="0" cy="0" r="1" gradientUnits="userSpaceOnUse" gradientTransform="translate(92.5584 115.913) rotate(47.4372) scale(77.593 103.431)">
<stop offset="0.911282" stop-color="#E9AC9A" stop-opacity="0"/>
<stop offset="1" stop-color="#E9AC9A"/>
</radialGradient>
<clipPath id="clip0_1_904">
<rect width="176" height="176" fill="white" transform="matrix(-0.866025 -0.5 -0.5 0.866025 241 88)"/>
</clipPath>
</defs>
</svg>
